<?xml version="1.0" encoding="utf-8"?>
<!-- Generator: Adobe Illustrator 18.0.0, SVG Export Plug-In . SVG Version: 6.00 Build 0)  -->
<!DOCTYPE svg PUBLIC "-//W3C//DTD SVG 1.1//EN" "http://www.w3.org/Graphics/SVG/1.1/DTD/svg11.dtd">
<svg version="1.1" id="Слой_1" xmlns="http://www.w3.org/2000/svg" xmlns:xlink="http://www.w3.org/1999/xlink" x="0px" y="0px"
	 viewBox="0 0 14.8 16" enable-background="new 0 0 14.8 16" xml:space="preserve">
<path fill="none" stroke="#ffffff" stroke-width="2" stroke-miterlimit="10" d="M7.4,15L7.4,15c-1.7,0-3-1.3-3-3v0h6v0
	C10.4,13.7,9,15,7.4,15z"/>
<path d="M8.4,3h-2V1c0-0.6,0.4-1,1-1h0c0.5,0,1,0.4,1,1V3z"/>
<path fill="none" stroke="#ffffff" stroke-width="2" stroke-miterlimit="10" d="M12.4,9V7c0-2.7-2.2-5-5-5h0c-2.8,0-5,2.2-5,5v2
	l-1,3h12L12.4,9z"/>
</svg>
