<?xml version="1.0" encoding="utf-8"?>
<!-- Generator: Adobe Illustrator 18.1.1, SVG Export Plug-In . SVG Version: 6.00 Build 0)  -->
<svg version="1.1" id="Слой_1" xmlns="http://www.w3.org/2000/svg" xmlns:xlink="http://www.w3.org/1999/xlink" x="0px" y="0px"
	 viewBox="0 0 18 18" enable-background="new 0 0 18 18" xml:space="preserve">
<path d="M4,17L4,17c-0.6,0-1-0.4-1-1V6c0-0.6,0.4-1,1-1h0c0.5,0,1,0.4,1,1v10C5,16.6,4.6,17,4,17z"/>
<line fill="none" stroke="#fff" stroke-width="2" stroke-miterlimit="10" x1="15" y1="1" x2="15" y2="5"/>
<path fill="none" stroke="#fff" stroke-width="2" stroke-miterlimit="10" d="M18,1H3C1.9,1,1,1.9,1,3v0c0,1.1,0.9,2,2,2h14v12H3
	c-1.1,0-2-0.9-2-2V3c0-1.1,0.9-2,2-2h14"/>
</svg>
