<?xml version="1.0" encoding="utf-8"?>
<!-- Generator: Adobe Illustrator 18.0.0, SVG Export Plug-In . SVG Version: 6.00 Build 0)  -->
<!DOCTYPE svg PUBLIC "-//W3C//DTD SVG 1.1//EN" "http://www.w3.org/Graphics/SVG/1.1/DTD/svg11.dtd">
<svg version="1.1" id="Слой_1" xmlns="http://www.w3.org/2000/svg" xmlns:xlink="http://www.w3.org/1999/xlink" x="0px" y="0px"
	 viewBox="0 0 19 16" enable-background="new 0 0 19 16" xml:space="preserve">
<path fill="none" stroke="#ffffff" stroke-width="2" stroke-miterlimit="10" d="M0,1h2l2,10h11c1.6,0,3-1.4,3-3V4"/>
<path fill="none" stroke="#ffffff" stroke-width="2" stroke-miterlimit="10" d="M14,15L14,15c-1.1,0-2-0.9-2-2v0c0-1.1,0.9-2,2-2h0
	c1.1,0,2,0.9,2,2v0C16,14.1,15.1,15,14,15z"/>
<path fill="none" stroke="#ffffff" stroke-width="2" stroke-miterlimit="10" d="M6,15L6,15c-1.1,0-2-0.9-2-2v0c0-1.1,0.9-2,2-2h0
	c1.1,0,2,0.9,2,2v0C8,14.1,7.1,15,6,15z"/>
</svg>
