<svg xmlns="http://www.w3.org/2000/svg" viewBox="54 -17.1 429.4 792" enable-background="new 54 -17.1 429.4 792"><path fill="#fff" d="M466.9-17.1h-103c-115.4 0-190.4 76.6-190.4 195.3v89.8h-103c-9.1 0-16.5 7.4-16.5 16.5v130.2c0 9.1 7.4 16.5 16.5 16.5h103v327.2c0 9.1 7.4 16.5 16.5 16.5h135.2c9.1 0 16.5-7.4 16.5-16.5v-328.8h121.1c9.1 0 16.5-7.4 16.5-16.5v-130.2c0-4.1-1.6-8.2-4.9-11.5-3.3-3.3-7.4-4.9-11.5-4.9h-121.3v-75.8c0-36.3 9.1-55.2 56-55.2h69.2c9.1 0 16.5-7.4 16.5-16.5v-121.3c-.7-7.4-7.3-14.8-16.4-14.8z"/></svg>