<svg xmlns="http://www.w3.org/2000/svg" viewBox="0 0 135.5 31.6" enable-background="new 0 0 135.5 31.6"><g fill="#fff"><path d="M67.4 4.8h-4.2v6.5h-3.6v-9.6h7.8v3.1zM73.4 11.5c-.8 0-1.6-.1-2.3-.4-.7-.3-1.2-.6-1.7-1.1-.5-.5-.8-1-1-1.6-.2-.6-.4-1.2-.4-1.9s.1-1.3.4-1.9c.3-.6.6-1.1 1.1-1.6.5-.5 1-.8 1.7-1.1.7-.3 1.4-.4 2.3-.4.8 0 1.6.1 2.3.4.7.3 1.2.6 1.7 1.1.5.5.8 1 1 1.6.2.6.4 1.2.4 1.9s-.1 1.3-.4 1.9-.6 1.1-1 1.6c-.5.5-1 .8-1.7 1.1-.8.3-1.6.4-2.4.4zm0-3.1c.6 0 1-.2 1.3-.5.3-.4.4-.9.4-1.4 0-.5-.1-1-.4-1.3-.3-.4-.7-.5-1.3-.5-.6 0-1 .2-1.3.5-.3.4-.4.8-.4 1.3s.1 1 .4 1.3c.3.4.7.6 1.3.6zM80.3 11.3v-9.6h6.9c.5 0 1 .1 1.4.2.4.2.7.3 1 .6.2.3.4.5.5.8.1.3.2.6.2.9 0 .6-.2 1-.5 1.4-.3.4-.7.6-1.2.8.6.1 1 .4 1.3.8.3.4.5.9.5 1.5 0 .3-.1.7-.2 1-.1.3-.3.6-.6.8-.3.2-.6.4-1 .6-.4.1-.9.2-1.4.2h-6.9zm6-6.1c.1 0 .2 0 .3-.1.1-.1.1-.2.1-.3 0-.1 0-.2-.1-.3-.1-.1-.2-.1-.3-.1h-2.4v.8h2.4zm.1 3.5c.1 0 .3 0 .4-.1.1-.1.2-.2.2-.4 0-.1 0-.3-.1-.3-.1-.1-.2-.1-.4-.1h-2.6v.9h2.5zM97 11.5c-.8 0-1.6-.1-2.3-.4-.7-.3-1.2-.6-1.7-1.1-.5-.5-.8-1-1-1.6-.2-.6-.4-1.2-.4-1.9s.1-1.3.4-1.9c.2-.6.6-1.1 1-1.6.5-.5 1-.8 1.7-1.1.7-.3 1.4-.4 2.3-.4s1.6.1 2.3.4c.7.3 1.2.6 1.7 1.1.5.5.8 1 1 1.6.2.6.4 1.2.4 1.9s-.1 1.3-.4 1.9c-.2.6-.6 1.1-1 1.6-.5.5-1 .8-1.7 1.1-.6.3-1.4.4-2.3.4zm0-3.1c.6 0 1-.2 1.3-.5.3-.4.4-.8.4-1.3s-.1-1-.4-1.3c-.3-.5-.7-.7-1.3-.7-.6 0-1 .2-1.3.5-.3.4-.4.8-.4 1.3s.1 1 .4 1.3c.4.5.8.7 1.3.7zM110 11.5c-.5 0-1-.1-1.4-.3-.4-.2-.9-.5-1.3-1v4.7h-3.6v-13.2h3.6v1c.4-.5.8-.8 1.3-1 .5-.2.9-.3 1.4-.3.6 0 1.1.1 1.7.3.5.2.9.5 1.3 1s.7.9.9 1.6c.2.6.3 1.3.3 2.2 0 .8-.1 1.5-.3 2.2-.2.6-.5 1.2-.9 1.6-.4.4-.8.7-1.3 1-.5.1-1.1.2-1.7.2zm-1.2-3.1c.5 0 .9-.2 1.2-.5.4-.3.5-.8.5-1.4 0-.6-.2-1.1-.5-1.4-.4-.3-.8-.5-1.2-.5-.2 0-.5.1-.8.2-.3.1-.5.3-.7.5v2.4c.2.2.4.4.7.5.3.1.6.2.8.2zM115.5 11.3v-9.6h3.6v4.3l2.9-4.3h3.6v9.6h-3.6v-4.5l-3.1 4.5h-3.4zM129.4 11.3v-6.5h-2.6v-3.1h8.6v3.1h-2.4v6.5h-3.6zM59.7 28v-9.6h3.6v3h2.9v-3h3.6v9.6h-3.6v-3.4h-2.9v3.4h-3.6zM77.8 28v-1c-.3.3-.7.6-1.2.8-.5.2-1.1.3-1.7.3-.4 0-.7-.1-1.1-.2-.4-.1-.7-.3-1.1-.6-.3-.3-.6-.6-.8-1-.2-.4-.3-.9-.3-1.4 0-.6.1-1.1.3-1.5.2-.4.5-.7.8-.9.3-.2.7-.4 1.1-.5.4-.1.8-.1 1.1-.1.6 0 1.2.1 1.7.3.5.2.9.4 1.2.8v-1c0-.3-.1-.6-.4-.9-.4-.1-.8-.2-1.4-.2-.4 0-.9.1-1.4.2-.5.2-.9.4-1.3.7l-1.2-2.2c.6-.5 1.4-.9 2.2-1.1.8-.2 1.6-.3 2.3-.3.6 0 1.2.1 1.7.2.6.1 1.1.3 1.5.6.4.3.8.7 1.1 1.2.3.5.4 1.2.4 2v5.8h-3.5zm-1.4-2.1c.3 0 .6 0 .8-.1.3-.1.5-.2.6-.4v-.5c-.1-.2-.3-.3-.6-.4-.3-.1-.5-.1-.8-.1-.3 0-.6.1-.9.2-.3.1-.4.3-.4.6 0 .1 0 .3.1.4.1.1.2.2.3.2.1.1.3.1.4.1h.5zM89.3 28.2c-.5 0-1-.1-1.4-.3s-.9-.5-1.3-1v4.7h-3.6v-13.2h3.6v1c.4-.5.8-.8 1.3-1 .5-.2.9-.3 1.4-.3.6 0 1.1.1 1.7.3.5.2.9.5 1.3 1 .4.4.7.9.9 1.6.2.6.3 1.3.3 2.2 0 .8-.1 1.5-.3 2.2-.2.6-.5 1.2-.9 1.6-.4.4-.8.7-1.3 1-.6.1-1.1.2-1.7.2zm-1.3-3.2c.5 0 .9-.2 1.2-.5.4-.3.5-.8.5-1.4 0-.6-.2-1.1-.5-1.4-.4-.3-.8-.5-1.2-.5-.2 0-.5.1-.8.2-.3.1-.5.3-.7.5v2.4c.2.2.4.4.7.5.4.2.6.2.8.2zM100 28.2c-.8 0-1.6-.1-2.3-.4-.7-.3-1.2-.6-1.7-1.1-.5-.5-.8-1-1-1.6-.2-.6-.4-1.2-.4-1.9s.1-1.3.4-1.9c.2-.6.6-1.1 1-1.6.5-.5 1-.8 1.7-1.1.7-.3 1.4-.4 2.3-.4s1.6.1 2.3.4c.7.3 1.2.6 1.7 1.1.5.5.8 1 1 1.6.2.6.4 1.2.4 1.9s-.1 1.3-.4 1.9c-.2.6-.6 1.1-1 1.6-.5.5-1 .8-1.7 1.1-.7.3-1.4.4-2.3.4zm0-3.2c.6 0 1-.2 1.3-.5.3-.4.4-.8.4-1.3s-.1-1-.4-1.3c-.3-.4-.7-.5-1.3-.5-.6 0-1 .2-1.3.5-.3.4-.4.8-.4 1.3s.1 1 .4 1.3c.3.4.8.5 1.3.5zM106.1 25c.2 0 .3 0 .5-.1.1 0 .3-.1.4-.3.1-.1.2-.3.3-.6.1-.3.2-.6.2-1.1l.7-4.6h8.6v6.5h1v5.5h-3.6v-2.3h-4.6v2.4h-3.6v-5.4zm4.9-2c-.1.8-.4 1.4-.8 1.9h2.9v-3.4h-2l-.1 1.5z"/></g><g fill="#fff"><path d="M45.8 30.9l-19.4-.2c-.4 0-.8-.3-.8-.8v-29.1c.1-.4.4-.8.8-.8h19.4c.2 0 .4.1.5.2.1.1.2.3.2.5v16.8c0 .4-.3.8-.8.8-.4 0-.8-.3-.8-.8v-16h-17.9v27.5l17.9.2v-3.2c0-.4.3-.8.8-.8.4 0 .8.3.8.8v4c0 .2-.1.4-.2.5-.1.3-.3.4-.5.4zM47.7 24.8c-.2 0-.4-.1-.6-.3-.3-.3-.2-.8.1-1.1l6.2-5h-7.5c-.4 0-.8-.3-.8-.8 0-.4.3-.8.8-.8h9.6c.3 0 .6.2.7.5.1.3 0 .6-.2.8l-7.9 6.4c0 .3-.2.3-.4.3zM43.2 14.5c-.2 0-.3-.1-.5-.2-4.3-3.5-8.5-6.4-9.7-7.2l-6.3 2.6c-.2.1-.5.1-.7 0-1.8-1-4.7-2.1-5.6-2.5-1.1.6-5.2 2.7-9.4 6.1-.3.3-.8.2-1.1-.1-.3-.3-.2-.8.1-1.1 5.1-4.1 9.8-6.3 10-6.4.2-.1.4-.1.6 0 .1.1 3.5 1.3 5.8 2.5l6.4-2.6c.2-.1.5-.1.7.1.1 0 5 3.4 10.1 7.5.3.3.4.7.1 1.1 0 .1-.3.2-.5.2zM32.7 20.8h-6.1c-.4 0-.8-.3-.8-.8s.3-.8.8-.8h5.8l4.5-4.1h-10.3c-.4 0-.8-.3-.8-.8 0-.4.3-.8.8-.8h12.2c.3 0 .6.2.7.5.1.3 0 .6-.2.8l-6.1 5.6c-.1.3-.3.4-.5.4zM26.1 24c-.4 0-.8-.3-.8-.8 0-.4.3-.8.8-.8h8.9l7.6-9c.3-.3.8-.4 1.1-.1.3.3.4.8.1 1.1l-7.8 9.4c-.1.2-.4.3-.6.3l-9.3-.1zM17.1 24c-.2 0-.4-.1-.5-.2l-5.8-5.2c-.3-.3-.3-.8-.1-1.1.3-.3.8-.3 1.1-.1l5.5 5h8.1c.4 0 .8.3.8.8 0 .4-.3.8-.8.8h-8.3zM14.3 15.3c-.4 0-.7-.3-.7-.7v-.8c0-.4.3-.7.7-.7s.7.3.7.7v.8c0 .4-.4.7-.7.7zM11.7 15.3c-.4 0-.7-.3-.7-.7v-.8c0-.4.3-.7.7-.7s.7.3.7.7v.8c0 .4-.3.7-.7.7zM16.8 15.3c-.4 0-.7-.3-.7-.7v-.8c0-.4.3-.7.7-.7s.7.3.7.7v.8c0 .4-.3.7-.7.7zM19.3 15.3c-.4 0-.7-.3-.7-.7v-.8c0-.4.3-.7.7-.7s.7.3.7.7v.8c.1.4-.3.7-.7.7zM21.9 15.3c-.4 0-.7-.3-.7-.7v-.8c0-.4.3-.7.7-.7s.7.3.7.7v.8c0 .4-.3.7-.7.7zM24.5 15.3c-.4 0-.7-.3-.7-.7v-.8c0-.4.3-.7.7-.7s.7.3.7.7v.8c0 .4-.3.7-.7.7zM15.5 16.7c-.4 0-.7-.3-.7-.7v-.9c0-.4.3-.7.7-.7s.7.3.7.7v.9c.1.4-.3.7-.7.7zM13 16.7c-.4 0-.7-.3-.7-.7v-.9c0-.4.3-.7.7-.7.4 0 .7.3.7.7v.9c0 .4-.3.7-.7.7zM10.5 16.7c-.4 0-.7-.3-.7-.7v-.9c0-.4.3-.7.7-.7s.7.3.7.7v.9c0 .4-.3.7-.7.7zM18.1 16.7c-.4 0-.7-.3-.7-.7v-.9c0-.4.3-.7.7-.7s.7.3.7.7v.9c0 .4-.3.7-.7.7zM20.6 16.7c-.4 0-.7-.3-.7-.7v-.9c0-.4.3-.7.7-.7s.7.3.7.7v.9c.1.4-.3.7-.7.7zM23.2 16.7c-.4 0-.7-.3-.7-.7v-.9c0-.4.3-.7.7-.7s.7.3.7.7v.9c0 .4-.3.7-.7.7zM.8 18.2c-.2 0-.4-.1-.5-.2-.2-.2-.3-.4-.3-.6v-4.9c0-.2.1-.4.3-.6.2-.1.4-.2.6-.2l7.6 1c.4 0 .7.4.7.8v2.7c0 .4-.3.7-.6.8l-7.6 1.2c-.2-.1-.2 0-.2 0zm.7-4.8v3.1l6.1-1v-1.4l-6.1-.7zM5.6 17.2c-.4 0-.8-.3-.8-.8v-3.1c0-.4.3-.8.8-.8.4 0 .8.3.8.8v3.1c0 .5-.3.8-.8.8z"/></g></svg>