<svg xmlns="http://www.w3.org/2000/svg" viewBox="0 0 177 63" enable-background="new 0 0 177 63"><path stroke="#fff" stroke-width="3.1" stroke-linecap="round" stroke-linejoin="round" stroke-miterlimit="10" fill="none" d="M92.9 52.9v8.1l-39.4-.5v-58.9l39.4-.1v34.1M96.7 48.8l16-13h-19.5M87.6 27.8c-10.4-8.4-20.4-15.1-20.4-15.1l-13.6 5.5c-4.7-2.5-12.2-5.2-12.2-5.2s-9.7 4.6-19.9 12.8M53.8 29.1h24.8s-8.1 7.5-12.4 11.5h-12.3M53 47.1h18.7l15.9-18.7M23 36.7l11.7 10.4h17"/><g stroke="#fff" stroke-width="2.9" stroke-linecap="round" stroke-linejoin="round" stroke-miterlimit="10" fill="none"><path d="M28.8 28v1.6M23.7 28v1.6M34 28v1.6M39.2 28v1.6M44.3 28v1.6M49.6 28v1.6M31.5 30.7v1.7M26.3 30.7v1.7M21.2 30.7v1.7M36.6 30.7v1.7M41.8 30.7v1.7M47 30.7v1.7"/></g><g fill="#fff"><path d="M108.9 4h-4.2v6.5h-3.6v-9.6h7.8v3.1zM114.9 10.7c-.8 0-1.6-.1-2.3-.4-.7-.3-1.2-.6-1.7-1.1-.5-.5-.8-1-1-1.6-.2-.6-.4-1.2-.4-1.9s.1-1.3.4-1.9c.2-.6.6-1.1 1-1.6.5-.5 1-.8 1.7-1.1.7-.3 1.4-.4 2.3-.4s1.6.1 2.3.4c.7.3 1.2.6 1.7 1.1.5.5.8 1 1 1.6.2.6.4 1.2.4 1.9s-.1 1.3-.4 1.9c-.2.6-.6 1.1-1 1.6-.5.5-1 .8-1.7 1.1-.7.3-1.4.4-2.3.4zm0-3.1c.6 0 1-.2 1.3-.5.3-.4.4-.8.4-1.3s-.1-1-.4-1.3c-.3-.4-.7-.5-1.3-.5-.6 0-1 .2-1.3.5-.3.4-.4.8-.4 1.3s.1 1 .4 1.3c.3.3.8.5 1.3.5zM121.8 10.5v-9.6h6.9c.5 0 1 .1 1.4.2.4.2.7.3 1 .6.3.2.4.5.6.8.1.3.2.6.2.9 0 .6-.2 1-.5 1.4-.3.4-.7.6-1.2.8.6.1 1 .4 1.3.8.3.4.5.9.5 1.5 0 .3-.1.7-.2 1-.1.3-.3.6-.6.8-.3.2-.6.4-1 .6-.4.1-.9.2-1.4.2h-7zm6-6.2c.1 0 .2 0 .3-.1.1-.1.1-.2.1-.3 0-.1 0-.2-.1-.3-.1-.1-.2-.1-.3-.1h-2.4v.8h2.4zm.2 3.5c.1 0 .3 0 .4-.1.1-.1.1-.2.1-.3 0-.1 0-.3-.1-.3-.1-.1-.2-.1-.4-.1h-2.6v.9h2.6zM138.6 10.7c-.8 0-1.6-.1-2.3-.4-.7-.3-1.2-.6-1.7-1.1-.5-.5-.8-1-1-1.6-.2-.6-.4-1.2-.4-1.9s.1-1.3.4-1.9c.2-.6.6-1.1 1-1.6.5-.5 1-.8 1.7-1.1.7-.3 1.4-.4 2.3-.4s1.6.1 2.3.4c.7.3 1.2.6 1.7 1.1.5.5.8 1 1 1.6.2.6.4 1.2.4 1.9s-.1 1.3-.4 1.9-.6 1.1-1 1.6c-.5.5-1 .8-1.7 1.1-.7.3-1.5.4-2.3.4zm0-3.1c.6 0 1-.2 1.3-.5.3-.4.4-.8.4-1.3s-.1-1-.4-1.3c-.3-.4-.7-.5-1.3-.5-.6 0-1 .2-1.3.5-.3.4-.4.8-.4 1.3s.1 1 .4 1.3c.3.3.7.5 1.3.5zM151.5 10.7c-.5 0-1-.1-1.4-.3-.4-.2-.9-.5-1.3-1v4.7h-3.6v-13.2h3.6v1c.4-.5.8-.8 1.3-1 .5-.2.9-.3 1.4-.3.6 0 1.1.1 1.7.3.5.2.9.5 1.3 1 .4.4.7.9.9 1.6.2.6.3 1.3.3 2.2 0 .8-.1 1.5-.3 2.2-.2.6-.5 1.2-.9 1.6-.4.4-.8.7-1.3 1-.5.1-1.1.2-1.7.2zm-1.2-3.1c.5 0 .9-.2 1.2-.5.4-.3.5-.8.5-1.4 0-.6-.2-1.1-.5-1.4-.4-.3-.8-.5-1.2-.5-.2 0-.5.1-.8.2-.3.1-.5.3-.7.5v2.4c.2.2.4.4.7.5.3.1.6.2.8.2zM157 10.5v-9.6h3.6v4.3l2.9-4.3h3.6v9.6h-3.6v-4.6l-3.1 4.5h-3.4zM170.9 10.5v-6.5h-2.6v-3.1h8.6v3.1h-2.5v6.5h-3.5zM101.2 27.1v-9.6h3.6v3h2.9v-3h3.6v9.6h-3.6v-3.4h-2.9v3.4h-3.6zM119.3 27.1v-.9c-.3.3-.7.6-1.2.8-.5.2-1.1.3-1.7.3-.4 0-.7-.1-1.1-.2-.4-.1-.7-.3-1.1-.6-.3-.3-.6-.6-.8-1-.2-.4-.3-.9-.3-1.4 0-.6.1-1.1.3-1.5.2-.4.5-.7.8-.9.3-.2.7-.4 1.1-.5.4-.1.8-.1 1.1-.1.6 0 1.2.1 1.7.3.5.2.9.4 1.2.8v-1c0-.3-.1-.6-.4-.9-.3-.2-.7-.3-1.3-.3-.4 0-.9.1-1.4.2-.5.2-.9.4-1.3.7l-1.2-2.2c.6-.5 1.4-.9 2.2-1.1.8-.2 1.6-.3 2.3-.3.6 0 1.2.1 1.7.2.6.1 1.1.3 1.5.6.4.3.8.7 1.1 1.2.3.5.4 1.2.4 2v5.8h-3.6zm-1.4-2c.3 0 .6 0 .8-.1.3-.1.5-.2.6-.4v-.6c-.1-.2-.3-.3-.6-.4-.3-.1-.5-.1-.8-.1-.3 0-.6.1-.9.2-.3.1-.4.3-.4.6 0 .1 0 .3.1.4.1.1.2.2.3.2.1.1.3.1.4.1.2.1.3.1.5.1zM130.8 27.4c-.5 0-1-.1-1.4-.3s-.9-.5-1.3-1v4.7h-3.6v-13.2h3.6v1c.4-.5.8-.8 1.3-1 .5-.2.9-.3 1.4-.3.6 0 1.1.1 1.7.3.5.2.9.5 1.3 1s.7.9.9 1.6c.2.6.3 1.3.3 2.2 0 .8-.1 1.5-.3 2.2-.2.6-.5 1.2-.9 1.6-.4.4-.8.7-1.3 1-.6.1-1.1.2-1.7.2zm-1.2-3.2c.5 0 .9-.2 1.2-.5.4-.3.5-.8.5-1.4 0-.6-.2-1.1-.5-1.4-.4-.3-.8-.5-1.2-.5-.2 0-.5.1-.8.2-.3.1-.5.3-.7.5v2.4c.2.2.4.4.7.5.3.2.5.2.8.2zM141.5 27.4c-.8 0-1.6-.1-2.3-.4-.7-.3-1.2-.6-1.7-1.1-.5-.5-.8-1-1-1.6-.2-.6-.4-1.2-.4-1.9s.1-1.3.4-1.9c.2-.6.6-1.1 1-1.6.5-.5 1-.8 1.7-1.1.7-.3 1.4-.4 2.3-.4s1.6.1 2.3.4c.7.3 1.2.6 1.7 1.1.5.5.8 1 1 1.6.2.6.4 1.2.4 1.9s-.1 1.3-.4 1.9c-.2.6-.6 1.1-1 1.6-.5.5-1 .8-1.7 1.1-.7.2-1.4.4-2.3.4zm0-3.2c.6 0 1-.2 1.3-.5.3-.4.4-.8.4-1.3s-.1-1-.4-1.3c-.3-.4-.7-.5-1.3-.5-.6 0-1 .2-1.3.5-.3.4-.4.8-.4 1.3s.1 1 .4 1.3c.4.3.8.5 1.3.5zM147.6 24.2c.2 0 .3 0 .5-.1.1 0 .3-.1.4-.3.1-.1.2-.3.3-.6.1-.3.2-.6.2-1.1l.7-4.6h8.6v6.5h1v5.5h-3.6v-2.4h-4.6v2.4h-3.6v-5.3zm4.9-2.1c-.1.8-.4 1.4-.8 1.9h2.9v-3.4h-2l-.1 1.5z"/></g><g stroke="#fff" stroke-width="3.1" stroke-linecap="round" stroke-linejoin="round" stroke-miterlimit="10" fill="none"><path d="M1.5 35.2v-9.9l15.5 2v5.5zM11.4 33.3v-6.3"/></g></svg>