<?xml version="1.0" encoding="utf-8"?>
<!-- Generator: Adobe Illustrator 18.0.0, SVG Export Plug-In . SVG Version: 6.00 Build 0)  -->
<!DOCTYPE svg PUBLIC "-//W3C//DTD SVG 1.1//EN" "http://www.w3.org/Graphics/SVG/1.1/DTD/svg11.dtd">
<svg version="1.1" id="Слой_1" xmlns="http://www.w3.org/2000/svg" xmlns:xlink="http://www.w3.org/1999/xlink" x="0px" y="0px"
	 viewBox="0 0 266.1 130.1" enable-background="new 0 0 266.1 130.1" xml:space="preserve">
<path fill-rule="evenodd" clip-rule="evenodd" fill="#383330" d="M94.7,23.6l37.4,64.7v0l0.9,1.6c5.9,10.3,9.8,16.9,22.6,16.8
	c9.5-0.1,13.9-4.3,18-10.9c4.4,6.8,8.9,11,19,10.9c11.9-0.1,15.7-6.8,21.2-16.2c0.3-0.6,0.7-1.2,1.2-2.2L266.1,0h-19.2
	c-2,0-3.9,0.3-5.8,1.1c-2.7,1-5.2,2.7-7,4.9c-1.1,1.3-2,2.8-2.9,4.3l-11.1,19.2v0l-27,46.8l-1.1,1.9l-1.1-1.9l-3-5.2l27.5-47.4h-18
	c-2.4,0-4.5,0.2-6.8,1c-4,1.5-7.3,4.3-9.2,8l0,0c-0.1,0.1-0.2,0.3-0.3,0.4v0c-0.1,0.1-0.1,0.2-0.2,0.2l-24.8,43l-1.1,1.9l-1.1-1.9
	l-24.1-41.8c-1.7-2.9-3.3-5.6-6.1-7.6c-2.6-1.9-5.7-3.1-9.1-3.3v0H94.7z M131.7,23.6L155.1,64l14.4-25l-2.3-4
	c-1.9-3.3-3.5-6.1-6.8-8.4c-2.5-1.8-5.5-2.9-8.8-3.1v0H131.7z"/>
<path fill-rule="evenodd" clip-rule="evenodd" fill="#D9261C" d="M45.7,51.1L0,130.1h18.5v0l0.1,0c0.1,0,0.2,0,0.3,0
	c3.1,0,5.7-0.3,8-1.4c2.3-1.1,4.4-3.1,6.5-6.5l0,0l9-15.6h54.4l-9.3-16.1c0-0.1-0.1-0.1-0.1-0.2c-0.1-0.1-0.1-0.2-0.2-0.3
	c-1.6-3-4.4-5.3-7.6-6.5c-0.6-0.2-1.3-0.4-2-0.5c-0.7-0.1-1.4-0.2-2.1-0.2l0,0v0H56.2l16.6-28.8l1.1-1.9l1.1,1.9l25.7,44.6l0,0
	c2.1,3.4,5.4,6,9.3,7.3c0.8,0.2,1.5,0.4,2.4,0.6c0.8,0.1,1.6,0.2,2.5,0.3l0.1,0h19.3L96.8,41.9c-0.6-1-0.9-1.6-1.2-2.2
	c-5.4-9.4-9.2-16.1-21.2-16.2C64.8,23.5,60,27,56.1,33.4C52.6,39.3,49.1,45.2,45.7,51.1"/>
</svg>
