<?xml version="1.0" encoding="utf-8"?>
<!-- Generator: Adobe Illustrator 18.0.0, SVG Export Plug-In . SVG Version: 6.00 Build 0)  -->
<!DOCTYPE svg PUBLIC "-//W3C//DTD SVG 1.1//EN" "http://www.w3.org/Graphics/SVG/1.1/DTD/svg11.dtd">
<svg version="1.1" id="Слой_1" xmlns="http://www.w3.org/2000/svg" xmlns:xlink="http://www.w3.org/1999/xlink" x="0px" y="0px"
	 viewBox="0 0 20 10" enable-background="new 0 0 20 10" xml:space="preserve">
<path fill="#d9251c" d="M19,10H1c-0.6,0-1-0.4-1-1v0c0-0.6,0.4-1,1-1h18c0.5,0,1,0.4,1,1v0C20,9.6,19.6,10,19,10z"/>
<path fill="#d9251c" d="M19,6H1C0.4,6,0,5.6,0,5v0c0-0.6,0.4-1,1-1h18c0.5,0,1,0.4,1,1v0C20,5.6,19.6,6,19,6z"/>
<path fill="#d9251c" d="M19,2L1,2C0.4,2,0,1.6,0,1v0c0-0.6,0.4-1,1-1l18,0c0.5,0,1,0.4,1,1v0C20,1.6,19.6,2,19,2z"/>
</svg>
