<svg xmlns="http://www.w3.org/2000/svg" viewBox="-16 -104 579.3 1000" enable-background="new -16 -104 579.3 1000"><path fill="#fff" d="M273.7-104c-142.4 0-258.2 115.8-258.2 258.1s115.8 258 258.1 258 258.1-115.7 258.1-258-115.7-258.1-258-258.1zm0 151.2c58.9 0 106.8 48 106.8 106.9 0 58.9-47.9 106.8-106.8 106.8s-106.9-47.9-106.9-106.8 47.9-106.9 106.9-106.9zm-212.8 373.7c-25.5-.4-50.7 12.2-65.2 35.4-22.3 35.4-11.6 82 23.7 104.3 46.7 29.3 97.3 50.1 149.8 62l-144.3 144.3c-29.5 29.5-29.5 77.4 0 106.9 14.8 14.8 34.2 22.2 53.5 22.2 19.3 0 38.7-7.4 53.5-22.2l141.7-141.8 141.8 141.8c29.5 29.5 77.3 29.5 106.9 0 29.5-29.5 29.5-77.4 0-106.9l-144.3-144.2c52.5-12 103.2-32.8 149.8-62.1 35.4-22.2 46-69 23.8-104.3-22.3-35.4-68.9-46-104.3-23.8-105.7 66.5-241.8 66.4-347.5 0-12.1-7.6-25.6-11.4-38.9-11.6z"/></svg>