<?xml version="1.0" encoding="utf-8"?>
<!-- Generator: Adobe Illustrator 18.0.0, SVG Export Plug-In . SVG Version: 6.00 Build 0)  -->
<!DOCTYPE svg PUBLIC "-//W3C//DTD SVG 1.1//EN" "http://www.w3.org/Graphics/SVG/1.1/DTD/svg11.dtd">
<svg version="1.1" id="Слой_1" xmlns="http://www.w3.org/2000/svg" xmlns:xlink="http://www.w3.org/1999/xlink" x="0px" y="0px"
	 viewBox="0 0 20 20" enable-background="new 0 0 20 20" xml:space="preserve">
<path fill="#d9251c" d="M19,11H1c-0.6,0-1-0.4-1-1v0c0-0.6,0.4-1,1-1l18,0c0.5,0,1,0.4,1,1v0C20,10.6,19.6,11,19,11z"/>
<path fill="#d9251c" d="M10,20L10,20c-0.6,0-1-0.4-1-1V1c0-0.6,0.4-1,1-1h0c0.5,0,1,0.4,1,1v18C11,19.5,10.6,20,10,20z"/>
</svg>
