<?xml version="1.0" encoding="utf-8"?>
<!-- Generator: Adobe Illustrator 18.0.0, SVG Export Plug-In . SVG Version: 6.00 Build 0)  -->
<!DOCTYPE svg PUBLIC "-//W3C//DTD SVG 1.1//EN" "http://www.w3.org/Graphics/SVG/1.1/DTD/svg11.dtd">
<svg version="1.1" id="Слой_1" xmlns="http://www.w3.org/2000/svg" xmlns:xlink="http://www.w3.org/1999/xlink" x="0px" y="0px"
	 viewBox="0 0 22 22" enable-background="new 0 0 22 22" xml:space="preserve">
<circle fill="none" stroke="#212121" stroke-width="2" stroke-miterlimit="10" cx="11" cy="11" r="2"/>
<path fill="none" stroke="#212121" stroke-width="2" stroke-miterlimit="10" d="M12.2,1.7L12.2,1.7c0.7-1.2,2.5-0.7,2.5,0.7v0
	c0,1,1.1,1.7,2,1.2l0,0c1.2-0.7,2.5,0.6,1.8,1.8l0,0c-0.5,0.9,0.1,2,1.2,2h0c1.4,0,1.9,1.8,0.7,2.5l0,0c-0.9,0.5-0.9,1.8,0,2.3l0,0
	c1.2,0.7,0.7,2.5-0.7,2.5h0c-1,0-1.7,1.1-1.2,2l0,0c0.7,1.2-0.6,2.5-1.8,1.8l0,0c-0.9-0.5-2,0.1-2,1.2v0c0,1.4-1.8,1.9-2.5,0.7l0,0
	c-0.5-0.9-1.8-0.9-2.3,0l0,0c-0.7,1.2-2.5,0.7-2.5-0.7v0c0-1-1.1-1.7-2-1.2l0,0c-1.2,0.7-2.5-0.6-1.8-1.8l0,0c0.5-0.9-0.1-2-1.2-2h0
	c-1.4,0-1.9-1.8-0.7-2.5l0,0c0.9-0.5,0.9-1.8,0-2.3l0,0C0.5,9.2,1,7.3,2.4,7.3h0c1,0,1.7-1.1,1.2-2l0,0C2.8,4.2,4.2,2.8,5.3,3.5l0,0
	c0.9,0.5,2-0.1,2-1.2v0c0-1.4,1.8-1.9,2.5-0.7l0,0C10.3,2.6,11.7,2.6,12.2,1.7z"/>
</svg>
