<?xml version="1.0" encoding="utf-8"?>
<!-- Generator: Adobe Illustrator 18.0.0, SVG Export Plug-In . SVG Version: 6.00 Build 0)  -->
<!DOCTYPE svg PUBLIC "-//W3C//DTD SVG 1.1//EN" "http://www.w3.org/Graphics/SVG/1.1/DTD/svg11.dtd">
<svg version="1.1" id="Слой_1" xmlns="http://www.w3.org/2000/svg" xmlns:xlink="http://www.w3.org/1999/xlink" x="0px" y="0px"
	 viewBox="0 0 23 19" enable-background="new 0 0 23 19" xml:space="preserve">
<path fill="none" stroke="#bdbdbd" stroke-width="2" stroke-miterlimit="10" d="M13,7H6V1h10v3C16,5.7,14.6,7,13,7z"/>
<path fill="#bdbdbd" d="M21,10L21,10c-0.6,0-1-0.4-1-1V1c0-0.6,0.4-1,1-1h0c0.5,0,1,0.4,1,1v8C22,9.6,21.6,10,21,10z"/>
<path fill="#bdbdbd" d="M21,2H1C0.4,2,0,1.6,0,1v0c0-0.6,0.4-1,1-1l20,0c0.5,0,1,0.4,1,1v0C22,1.6,21.6,2,21,2z"/>
<path fill="none" stroke="#bdbdbd" stroke-width="2" stroke-miterlimit="10" d="M16,4v11c0,1.6-1.4,3-3,3H9c-1.7,0-3-1.3-3-3V7"/>
<circle fill="#bdbdbd" cx="21" cy="10" r="2"/>
<circle fill="#bdbdbd" cx="13" cy="12" r="1"/>
<circle fill="#bdbdbd" cx="9" cy="12" r="1"/>
</svg>
