<svg xmlns="http://www.w3.org/2000/svg" viewBox="55 207 304 380" enable-background="new 55 207 304 380"><g><path fill="none" d="M-49 141h512v512h-512z"/><path fill="#fff" d="M337.8 409c-14.1-15.2-32.9-25.3-56.4-30.2v-2c16.3-6.8 29.1-17.4 38.4-31.9 9.3-14.5 13.9-31 13.9-49.5 0-16-3.4-30.1-10.1-42.4-6.7-12.2-16.9-22-30.5-29.3-12.6-6.8-26.1-11.3-40.4-13.4-14.4-2.1-35.5-3.2-63.4-3.2h-134.3v380h152.1c26.4 0 48.1-2.4 65.2-7.2 17.1-4.8 32.8-12.8 47.1-24 12.1-9.4 21.7-21.2 28.8-35.5 7.1-14.3 10.7-30.9 10.7-49.8.1-25.8-7-46.4-21.1-61.6zm-187.8-132.3h6.6c17 0 29.8.1 38.4.4 8.6.3 16 1.7 22.3 4.5 6.6 2.9 11.5 7.6 14.7 14 3.2 6.5 4.7 12.8 4.7 18.9 0 8.3-1.5 15.7-4.3 21.9-2.9 6.3-8.2 11.2-15.8 14.8-7 3.2-13.7 5-20.3 5.4-6.6.3-18 .5-34.3.5h-12v-80.4zm104.7 216.8c-4 7.2-10.3 12.7-19 16.5-9.9 4.3-19.6 6.6-29.1 6.9-9.5.3-26.7.5-51.5.5h-5.1v-95.2h17.6c17 0 30.6.1 40.7.4 10.1.3 18.1 1.5 23.9 3.7 9.5 3.4 16.7 8.4 21.4 15.1 4.8 6.6 7.2 15.8 7.2 27.6-.1 9-2.1 17.2-6.1 24.5z"/></g></svg>