<?xml version="1.0" encoding="utf-8"?>
<!-- Generator: Adobe Illustrator 18.0.0, SVG Export Plug-In . SVG Version: 6.00 Build 0)  -->
<!DOCTYPE svg PUBLIC "-//W3C//DTD SVG 1.1//EN" "http://www.w3.org/Graphics/SVG/1.1/DTD/svg11.dtd">
<svg version="1.1" id="Слой_1" xmlns="http://www.w3.org/2000/svg" xmlns:xlink="http://www.w3.org/1999/xlink" x="0px" y="0px"
	 viewBox="0 0 23 16" enable-background="new 0 0 23 16" xml:space="preserve">
<g>
	<path fill="#d58a86" d="M22.6,2.6c-0.3-1.2-1.3-2.1-2.5-2.3C17.2,0,14.3,0,11.5,0C8.6,0,5.7,0,2.9,0.3c-1.2,0.1-2.2,1-2.5,2.3C0,4.3,0,6.2,0,8
		s0,3.7,0.4,5.4c0.3,1.2,1.3,2.1,2.5,2.3C5.7,16,8.6,16,11.5,16c2.9,0,5.7,0,8.6-0.3c1.2-0.1,2.2-1,2.5-2.3C23,11.7,23,9.8,23,8
		C23,6.2,23,4.3,22.6,2.6z M8.5,11.6c0-2.5,0-5.1,0-7.6c2.4,1.3,4.8,2.5,7.3,3.8C13.4,9,11,10.3,8.5,11.6z"/>
</g>
</svg>
