<?xml version="1.0" encoding="utf-8"?>
<!-- Generator: Adobe Illustrator 19.0.0, SVG Export Plug-In . SVG Version: 6.00 Build 0)  -->
<svg version="1.1" id="Layer_1" xmlns="http://www.w3.org/2000/svg" xmlns:xlink="http://www.w3.org/1999/xlink" x="0px" y="0px"
	 viewBox="0 0 142.1 142.1" style="enable-background:new 0 0 142.1 142.1;" xml:space="preserve">
<style type="text/css">
	.st0{fill:#2D5972;}
	.st1{fill:#0F303F;}
	.st2{fill:#1895A4;}
	.st3{fill:#FDC015;}
	.st4{fill:#F99B1F;}
	.st5{fill:#19B0BF;}
	.st6{fill:#FFFFFF;}
	.st7{fill:#D1EBFA;}
</style>
<g id="XMLID_2_">
	<circle id="XMLID_15_" class="st0" cx="71" cy="71" r="71"/>
	<path id="XMLID_14_" class="st1" d="M138.1,94.5L84.4,40.8l-0.1,0.1c-3-3-7.1-4.9-11.6-4.9h-2h-2.4c-9,0-16.3,7.3-16.3,16.3v4.6
		h-2.7c-2.4,0-4.4,2-4.4,4.4v2.9v28.1v0.7v2.3c0,1.5,0.7,2.8,1.8,3.6l41.1,41.1C111.2,134.4,130.2,117.1,138.1,94.5z"/>
	<g id="XMLID_3_">
		<g id="XMLID_5_">
			<path id="XMLID_13_" class="st2" d="M96.1,95.4c0,2.4-2,4.4-4.4,4.4H49.1c-2.4,0-4.4-2-4.4-4.4v-2.9c0-2.4,2-4.4,4.4-4.4h42.5
				c2.4,0,4.4,2,4.4,4.4V95.4z"/>
			<path id="XMLID_12_" class="st3" d="M96.1,93.7c0,2.4-2,4.4-4.4,4.4H49.1c-2.4,0-4.4-2-4.4-4.4V62c0-2.4,2-4.4,4.4-4.4h42.5
				c2.4,0,4.4,2,4.4,4.4V93.7z"/>
			<path id="XMLID_11_" class="st4" d="M91.7,57.5H70.3v40.6h21.4c2.4,0,4.4-2,4.4-4.4V62C96.1,59.5,94.1,57.5,91.7,57.5z"/>
			<path id="XMLID_10_" class="st2" d="M96.1,64.3c0,2.4-2,4.4-4.4,4.4H49.1c-2.4,0-4.4-2-4.4-4.4v-2.9c0-2.4,2-4.4,4.4-4.4h42.5
				c2.4,0,4.4,2,4.4,4.4V64.3z"/>
			<path id="XMLID_9_" class="st5" d="M96.1,62.3c0,2.4-2,4.4-4.4,4.4H49.1c-2.4,0-4.4-2-4.4-4.4v-0.9c0-2.4,2-4.4,4.4-4.4h42.5
				c2.4,0,4.4,2,4.4,4.4V62.3z"/>
			<g id="XMLID_7_">
				<path id="XMLID_8_" class="st6" d="M85.9,64.3c-1.7,0-3.1-1.4-3.1-3.1v-8.8c0-5.6-4.6-10.2-10.2-10.2h-4.4
					c-5.6,0-10.2,4.6-10.2,10.2v8.8c0,1.7-1.4,3.1-3.1,3.1c-1.7,0-3.1-1.4-3.1-3.1v-8.8c0-9,7.3-16.3,16.3-16.3h4.4
					c9,0,16.3,7.3,16.3,16.3v8.8C89,62.9,87.6,64.3,85.9,64.3L85.9,64.3z"/>
			</g>
			<path id="XMLID_6_" class="st7" d="M72.6,36h-2c-9,0-16.3,7.3-16.3,16.3v11.9c0.2,0,0.4,0.1,0.7,0.1c0.2,0,0.4,0,0.5-0.1
				c0.2-0.2,0.4-0.3,0.7-0.2c0,0,0,0,0,0c0.2-0.1,0.3-0.2,0.5-0.2c0,0,0.1-0.1,0.1-0.1c0.1-0.1,0.2-0.2,0.3-0.2c0,0,0.1-0.1,0.1-0.1
				c0.1-0.1,0.2-0.2,0.3-0.4c0,0,0,0,0,0c0.1-0.1,0.2-0.3,0.3-0.5c0,0,0-0.1,0.1-0.2c0-0.1,0.1-0.3,0.1-0.4c0-0.1,0-0.1,0-0.2
				c0-0.2,0.1-0.4,0.1-0.6v-8.8c0-5.6,4.6-10.2,10.2-10.2h2.4h2H75c5.6,0,10.2,4.6,10.2,10.2v11.9c0.2,0,0.4,0.1,0.7,0.1
				c0.2,0,0.4,0,0.5-0.1c0.2-0.2,0.4-0.3,0.7-0.2c0,0,0,0,0,0c0.2-0.1,0.3-0.2,0.5-0.2c0,0,0.1-0.1,0.1-0.1c0.1-0.1,0.2-0.2,0.3-0.2
				c0,0,0.1-0.1,0.1-0.1c0.1-0.1,0.2-0.2,0.3-0.4c0,0,0,0,0,0c0.1-0.1,0.2-0.3,0.3-0.5c0,0,0-0.1,0.1-0.2c0-0.1,0.1-0.3,0.1-0.4
				c0-0.1,0-0.1,0-0.2c0-0.2,0.1-0.4,0.1-0.6v-8.8C89,43.4,81.6,36,72.6,36z"/>
		</g>
		<path id="XMLID_4_" class="st1" d="M74.7,81c0-2.4-1.9-4.3-4.3-4.3c-2.4,0-4.3,1.9-4.3,4.3c0,1.6,0.8,2.9,2.1,3.7l-1.4,4.4h3.6H74
			l-1.4-4.4C73.9,83.9,74.7,82.5,74.7,81z"/>
	</g>
</g>
</svg>
