<?xml version="1.0" encoding="utf-8"?>
<!-- Generator: Adobe Illustrator 19.0.0, SVG Export Plug-In . SVG Version: 6.00 Build 0)  -->
<svg version="1.1" id="Layer_1" xmlns="http://www.w3.org/2000/svg" xmlns:xlink="http://www.w3.org/1999/xlink" x="0px" y="0px"
	 viewBox="-178 527.7 253.1 23.1" style="enable-background:new -178 527.7 253.1 23.1;" xml:space="preserve">
<style type="text/css">
	.st0{fill:#A7A9AC;}
</style>
<g>
	<g>
		<path class="st0" d="M75.1,528h-2.9l-9.1,19l-8.4-19h-3.5l-8.5,19l-9-19h-2.9L41,549.4h3.5l8.5-18.9l8.3,18.9h3.6L75.1,528z"/>
		<path class="st0" d="M27,529.6c-1.2-1.2-4.1-1.8-8.5-1.8H9c-1.9,0-3.5,0.3-4.7,1c-1.2,0.6-1.9,1.6-2.3,3.1
			c-0.3,1.4-0.4,2.5-0.5,3.2c0,0.8,0,2,0,3.7c0,1.9,0,3.5,0.2,4.8c0.1,1.4,0.5,2.5,1,3.3c0.5,0.9,1.2,1.5,2,1.8
			c0.8,0.4,1.8,0.6,3,0.7s2.5,0.2,3.8,0.2h5.3c0.9,0,1.9,0,2.9,0c1-0.1,1.8-0.1,2.4-0.2c2.1,0,3.6-0.4,4.7-1.3c1-1,1.6-2.3,1.8-4
			c0.2-1.6,0.3-3.3,0.3-4.8v-1.4C28.9,533.5,28.3,530.8,27,529.6z M23.9,530.5c0.6,0.2,1.1,0.5,1.4,1c0.4,0.6,0.6,1.4,0.7,2.4
			c0.1,0.9,0.2,2.1,0.2,3.4v4.4c0,1.7-0.3,3-0.8,3.9c-0.5,0.8-1.5,1.4-3,1.5c-1.6,0.2-3.1,0.2-4.6,0.2l-8.2-0.1
			c-2.5,0-4-0.4-4.6-1.4s-0.9-2.8-0.9-5.5l0.1-4.8c0-2.3,0.4-3.8,1.2-4.4c0.7-0.7,2.3-1,4.8-1h10c0.7,0,1.3,0,1.9,0.1
			C22.7,530.2,23.3,530.4,23.9,530.5z"/>
		<path class="st0" d="M-0.4,528h-2.9l-9.1,19l-8.4-19h-3.5l-8.5,19l-9-19h-2.9l10.2,21.4h3.5l8.5-18.9l8.3,18.9h3.6L-0.4,528z"/>
		<path class="st0" d="M-52.4,528l-12.2-0.1c-3.8,0-6.2,0.8-7.1,2.4c-1,1.6-1.5,4.4-1.5,8.5v1.2c0,4,0.6,6.6,1.9,7.8
			c1.4,1.2,4,1.8,8.1,1.8h8.9c3.4,0,5.5-0.6,6.5-1.9c0.9-1.3,1.4-3.6,1.4-6.9v-2h-13.9v2.2h11.2c0,2.2-0.2,3.7-0.6,4.6
			c-0.5,0.9-1.5,1.4-3.1,1.5c-1.6,0.2-2.9,0.3-3.8,0.3l-8.3-0.1c-3.1,0-4.8-0.6-5.1-1.8c-0.4-1.3-0.5-3-0.5-5.3l0.1-5.5
			c0-1.8,0.4-3.1,1-3.5c0.7-0.5,1.8-0.8,3.5-1l11-0.1c2.2,0,3.7,0.2,4.4,0.7c0.8,0.4,1.2,1.6,1.2,3.5h2.6c0-2.2-0.5-3.8-1.3-4.8
			C-48.9,528.5-50.3,528-52.4,528z"/>
		<path class="st0" d="M-78.7,528h-2.6v19.3l-19.6-19.3h-4.4v21.4h2.6V530l19.8,19.4h4.2V528z"/>
		<path class="st0" d="M-110.6,530.2V528h-21.2v21.4h21.4v-2.2h-18.8v-7.8h17.9v-2.1h-17.9v-7.1H-110.6L-110.6,530.2z"/>
		<path class="st0" d="M-150.2,527.7h-2v23.1h2V527.7z"/>
		<path class="st0" d="M-176,527.7h-2v23.1h2V527.7z"/>
		<path class="st0" d="M-167.7,538.4h-2v12.4h2V538.4z"/>
		<path class="st0" d="M-160.2,538.4v12.4h2v-12.4H-160.2z"/>
	</g>
</g>
</svg>
