<?xml version="1.0" encoding="utf-8"?>
<!-- Generator: Adobe Illustrator 19.0.0, SVG Export Plug-In . SVG Version: 6.00 Build 0)  -->
<svg version="1.1" id="Layer_1" xmlns="http://www.w3.org/2000/svg" xmlns:xlink="http://www.w3.org/1999/xlink" x="0px" y="0px"
	 viewBox="0 0 133.6 30.4" style="enable-background:new 0 0 133.6 30.4;" xml:space="preserve">
<style type="text/css">
	.st0{fill-rule:evenodd;clip-rule:evenodd;fill:#FFFFFF;}
	.st1{fill-rule:evenodd;clip-rule:evenodd;fill:#EF4123;}
</style>
<g id="XMLID_19_">
	<path id="XMLID_32_" class="st0" d="M99.9,19.2c0,5.7,4.1,11.2,11.8,11.2c3.3,0,6.8-1.1,9.1-3.1l-2.7-5c-1.7,1.2-3.8,2.2-5.9,2.2
		c-2.3,0-4.5-1.2-5-3.8h13.5c0.1-0.7,0.2-1.5,0.2-2.2c0-5.9-3.6-10.4-9.9-10.4C104.1,8,99.9,12.9,99.9,19.2L99.9,19.2z M107.4,16.5
		c0.4-1.7,1.4-3.2,3.5-3.2c1.8,0,3,1.5,3,3.2H107.4z"/>
	<path id="XMLID_31_" class="st0" d="M86.5,22c0,7.2,6.6,8.1,10,8.1c0.8,0,1.4-0.1,2-0.1v-6.2c-0.5,0-0.7,0-1,0
		c-1.4,0-3.8-0.3-3.8-2.7v-6.6h4.5V8.9h-4.5V2.7h-7v6.2h-3v5.6h2.7V22z"/>
	<path id="XMLID_28_" class="st0" d="M61.7,19.2c0,5.7,4.1,11.2,11.8,11.2c3.3,0,6.8-1.1,9.1-3.1l-2.7-5c-1.7,1.2-3.8,2.2-5.9,2.2
		c-2.3,0-4.4-1.2-5-3.8h13.5c0.1-0.7,0.2-1.5,0.2-2.2c0-5.9-3.6-10.4-9.9-10.4C65.9,8,61.7,12.9,61.7,19.2L61.7,19.2z M69.2,16.5
		c0.4-1.7,1.4-3.2,3.5-3.2c1.8,0,3,1.5,3,3.2H69.2z"/>
	<path id="XMLID_27_" class="st0" d="M50.1,29.9h7.2V14.5h4V8.9h-4V8.2c0-1.8,2.2-2.1,3.6-2.1c0.5,0,1,0,1.2,0.1V0.1
		C61.3,0,60.6,0,59.9,0c-3.5,0-9.8,1-9.8,8v0.9h-2.6v5.6h2.6V29.9z"/>
	<path id="XMLID_24_" class="st0" d="M25,19.2c0,5.7,4.1,11.2,11.8,11.2c3.3,0,6.8-1.1,9.1-3.1l-2.7-5c-1.7,1.2-3.8,2.2-5.9,2.2
		c-2.3,0-4.4-1.2-5-3.8h13.5c0.1-0.7,0.2-1.5,0.2-2.2C46,12.4,42.5,8,36.1,8C29.2,8,25,12.9,25,19.2L25,19.2z M32.5,16.5
		c0.4-1.7,1.4-3.2,3.5-3.2c1.8,0,3,1.5,3,3.2H32.5z"/>
	<path id="XMLID_21_" class="st0" d="M0,19.2c0,6.7,3.8,11.2,9.6,11.2c2.5,0,4.9-1.1,6.2-3.1h0.1c0,0,0,0.5,0,1.2v1.4h6.7V0.2h-7.2
		v8.6c0,0.5,0,1,0,1h-0.1C14,8.3,11.7,8,9.8,8C4.1,8,0,12.4,0,19.2L0,19.2z M7.2,19.2c0-3.3,2-5.1,4.2-5.1c2.8,0,4.2,2.5,4.2,5.1
		c0,3.7-2,5.3-4.2,5.3C8.9,24.5,7.2,22.4,7.2,19.2z"/>
	<path id="XMLID_20_" class="st1" d="M129.4,20.8l0.7,2l2.4,0.2c0.6,0,1.1,0.6,1.1,1.3c0,0.4-0.2,0.7-0.5,0.9l0,0l-1.7,1.3l0.6,2.3
		c0.2,0.6-0.2,1.3-0.8,1.4c-0.3,0.1-0.7,0-1-0.2l-1.8-1.2l-2,1.3c-0.6,0.3-1.3,0.2-1.6-0.4c-0.2-0.3-0.2-0.7-0.1-1.1l0.6-2l-1.8-1.5
		c-0.5-0.4-0.6-1.2-0.2-1.7c0.2-0.3,0.6-0.4,1-0.4l2.1,0l0.9-2.2c0.2-0.6,0.9-0.9,1.5-0.7C129.1,20.1,129.3,20.4,129.4,20.8z"/>
</g>
</svg>
