<?xml version="1.0" encoding="utf-8"?>
<!-- Generator: Adobe Illustrator 19.0.0, SVG Export Plug-In . SVG Version: 6.00 Build 0)  -->
<svg version="1.1" id="Layer_1" xmlns="http://www.w3.org/2000/svg" xmlns:xlink="http://www.w3.org/1999/xlink" x="0px" y="0px"
	 viewBox="0 0 133.6 30.4" style="enable-background:new 0 0 133.6 30.4;" xml:space="preserve">
<style type="text/css">
	.st0{fill-rule:evenodd;clip-rule:evenodd;fill:#FFFFFF;}
	.st1{fill-rule:evenodd;clip-rule:evenodd;fill:#33B880;}
	.st2{fill-rule:evenodd;clip-rule:evenodd;fill:#EF6055;}
	.st3{fill-rule:evenodd;clip-rule:evenodd;fill:#908F8F;}
	.st4{fill-rule:evenodd;clip-rule:evenodd;fill:#B9C6C7;}
	.st5{fill-rule:evenodd;clip-rule:evenodd;fill:#838D8C;}
	.st6{fill-rule:evenodd;clip-rule:evenodd;fill:#5C5C5C;}
	.st7{fill-rule:evenodd;clip-rule:evenodd;fill:#D9D9D8;}
	.st8{fill-rule:evenodd;clip-rule:evenodd;fill:#23C0F1;}
	.st9{fill-rule:evenodd;clip-rule:evenodd;fill:#256EB6;}
	.st10{fill-rule:evenodd;clip-rule:evenodd;fill:#3E3F44;}
	.st11{fill-rule:evenodd;clip-rule:evenodd;fill:#EF4123;}
	.st12{fill-rule:evenodd;clip-rule:evenodd;fill:#898989;}
	.st13{fill-rule:evenodd;clip-rule:evenodd;fill:#04B3CF;}
	.st14{opacity:0.73;fill-rule:evenodd;clip-rule:evenodd;fill:#CDCCCC;}
</style>
<path id="XMLID_6_" class="st0" d="M-128-456.5c2.9,0,5.5,1.2,7.4,3.1v0c1.9,1.9,3.1,4.5,3.1,7.4c0,2-0.6,3.8-1.5,5.4l6.2,5.3
	c0.6,0.5,0.7,1.5,0.2,2.2c-0.5,0.6-1.5,0.7-2.2,0.2l-6.2-5.3c-1.8,1.6-4.3,2.6-6.9,2.6c-2.9,0-5.5-1.2-7.4-3.1h0
	c-1.9-1.9-3.1-4.5-3.1-7.4c0-2.9,1.2-5.5,3.1-7.4C-133.5-455.3-130.9-456.5-128-456.5L-128-456.5z M-122.8-451.3L-122.8-451.3
	c-1.3-1.3-3.2-2.2-5.2-2.2c-2,0-3.9,0.8-5.2,2.2c-1.3,1.3-2.2,3.2-2.2,5.2c0,2,0.8,3.9,2.2,5.2l0,0c1.3,1.3,3.2,2.2,5.2,2.2
	c2,0,3.9-0.8,5.2-2.2c1.3-1.3,2.2-3.2,2.2-5.2C-120.7-448.1-121.5-449.9-122.8-451.3z"/>
<path id="XMLID_4_" class="st1" d="M-110.4-294.4c-0.6-0.6-0.6-1.5,0-2.1c0.6-0.6,1.5-0.6,2.1,0l4.2,4.2l8.9-10.9
	c0.5-0.6,1.5-0.7,2.1-0.2c0.6,0.5,0.7,1.5,0.2,2.1l-9.8,12.1c-0.1,0.1-0.1,0.2-0.2,0.2c-0.6,0.6-1.5,0.6-2.1,0L-110.4-294.4z"/>
<path id="XMLID_2_" class="st2" d="M158.3-305.7c0-0.8,0.7-1.5,1.5-1.5c0.8,0,1.5,0.7,1.5,1.5v11.7c0,0.8-0.7,1.5-1.5,1.5
	c-0.8,0-1.5-0.7-1.5-1.5V-305.7z"/>
<path id="XMLID_1_" class="st2" d="M158.3-286.8c0-0.8,0.7-1.5,1.5-1.5c0.8,0,1.5,0.7,1.5,1.5v0.4c0,0.8-0.7,1.5-1.5,1.5
	c-0.8,0-1.5-0.7-1.5-1.5V-286.8z"/>
<path id="XMLID_3_" class="st0" d="M36.6-202.4c-0.4,0.4-1,0.4-1.4,0c-0.4-0.4-0.4-1,0-1.4l4.3-4.3l-4.2-4.2c-0.4-0.4-0.4-1,0-1.4
	c0.4-0.4,1-0.4,1.4,0l4.9,4.9c0.4,0.4,0.4,1,0,1.4L36.6-202.4z"/>
<path id="XMLID_5_" class="st3" d="M111.7-43.1c-0.4-0.4-0.4-1,0-1.4c0.4-0.4,1-0.4,1.4,0l4.7,4.7l4.6-4.6c0.4-0.4,1-0.4,1.4,0
	c0.4,0.4,0.4,1,0,1.4l-5.3,5.3c-0.4,0.4-1,0.4-1.4,0L111.7-43.1z"/>
<g id="XMLID_10_">
	<path id="XMLID_11_" class="st4" d="M28.5-42.6c0.2-0.2,0.4-0.4,0.6-0.6c0.5-0.4,1.1-0.6,1.9-0.6c0.9,0,1.7,0.3,2.3,0.9
		c0.6,0.5,1,1.3,1,2.1c0,1.3-0.7,2.6-1.8,3.9c-1,1.2-2.3,2.3-3.6,3.5c-0.3,0.2-0.7,0.2-0.9,0c-1.3-1.2-2.6-2.3-3.6-3.5
		c-1.1-1.3-1.8-2.6-1.8-3.9c0-0.8,0.4-1.6,1-2.1c0.6-0.5,1.4-0.9,2.3-0.9c0.8,0,1.4,0.2,1.9,0.6C28.1-43.1,28.3-42.9,28.5-42.6
		L28.5-42.6z M28-33.4L28-33.4L28-33.4z"/>
</g>
<g id="XMLID_9_">
	<path id="XMLID_17_" class="st5" d="M2.6,71.9c0,1,1.2,0.9,1.7,0.2c0.2-0.3,0.5-0.5,0.7-0.8l5.2-5.2c0.2-0.2,0.5-0.5,0.7-0.7
		c0.9-1.1,2-2,2.9-3c0.3-0.3,1.3-1.3,1.3-1.7c0-0.4-0.3-0.6-0.6-0.7c-0.2,0-0.6,0.2-0.7,0.4c-0.1,0.1-0.1,0.1-0.2,0.2
		c-0.3,0.2-0.5,0.5-0.7,0.7c-0.5,0.4-8.2,8.2-9.7,9.6C2.9,71.2,2.6,71.5,2.6,71.9z"/>
	<path id="XMLID_16_" class="st5" d="M3.8,73.2v0.3c0.7,0.5,0.9,0,1.9-1.1l8.4-8.5c0.7-0.7,1.2-1,1.2-1.8c0-0.1-0.1-0.3-0.2-0.3
		c-0.4,0-1,0.9-1.5,1.3c-1.5,1.4-2.9,2.8-4.3,4.3l-4.3,4.3C4.8,71.9,3.8,72.8,3.8,73.2z"/>
	<path id="XMLID_15_" class="st5" d="M13.5,59.9c-0.3-0.2-0.8-0.2-1,0L1.9,70.5c-0.2,0.3-0.4,0.7,0,0.9c0.5,0.2,1-0.6,1.6-1.1
		c0.5-0.5,0.9-0.9,1.4-1.4c0.4-0.4,3.7-3.6,4-4C9.4,64.1,13.3,60.7,13.5,59.9z"/>
	<path id="XMLID_14_" class="st5" d="M0,75v0.2c0.6,0,0.8-0.1,1.4-0.2l1.1-0.4c0-0.9-1.1-1.9-1.7-1.9C0.5,73.1,0,74.5,0,75z"/>
</g>
<g id="XMLID_18_">
	<path id="XMLID_20_" class="st6" d="M-20.2-89.2h2c0.4,0,0.7,0.3,0.7,0.7v19.3c0,0.4-0.3,0.7-0.7,0.7h-2c-0.4,0-0.7-0.3-0.7-0.7
		v-19.3C-20.9-88.8-20.6-89.2-20.2-89.2z"/>
	<path id="XMLID_19_" class="st6" d="M-29.4-77.8v-2c0-0.4,0.3-0.7,0.7-0.7h19.3c0.4,0,0.7,0.3,0.7,0.7v2c0,0.4-0.3,0.7-0.7,0.7
		h-19.3C-29.1-77.1-29.4-77.4-29.4-77.8z"/>
</g>
<path id="XMLID_22_" class="st7" d="M-62.7-149.6l1.4,4.4l4.7,0c0.5,0,0.9,0.4,0.9,0.9c0,0.3-0.2,0.6-0.4,0.8l0,0l-3.8,2.7l1.5,4.4
	c0.2,0.5-0.1,1-0.6,1.2c-0.3,0.1-0.7,0-0.9-0.2l-3.7-2.7l-3.8,2.8c-0.4,0.3-1,0.2-1.3-0.2c-0.2-0.3-0.2-0.6-0.1-0.8l0,0l1.5-4.4
	l-3.8-2.7c-0.4-0.3-0.5-0.9-0.2-1.3c0.2-0.3,0.5-0.4,0.8-0.4l4.6,0l1.4-4.4c0.2-0.5,0.7-0.8,1.2-0.6
	C-63-150.1-62.8-149.9-62.7-149.6z"/>
<g id="XMLID_21_">
	<path id="XMLID_25_" class="st8" d="M35.9,142.8c2.4-0.7,3.9-1.1,6.6-2.4c0.7-0.3,1.3-0.2,1.9,0.1c2,0.9,4,1.8,6.4,2.3
		c0.5,0.2,0.7,0.6,0.7,1.1c0,2.8-0.8,5.7-2.1,8.2c-1.3,2.5-3.2,4.7-5.4,6.1c-0.4,0.2-0.9,0.2-1.2,0h0c-2.3-1.5-4.1-3.6-5.3-6
		c-1.3-2.5-2.1-5.4-2.2-8.3C35.2,143.4,35.4,143,35.9,142.8L35.9,142.8z"/>
	<path id="XMLID_24_" class="st9" d="M39.8,149.3c-0.3-0.3-0.4-0.8-0.1-1.1c0.3-0.3,0.8-0.4,1.1-0.1l2.3,1.9l3.3-4.1
		c0.3-0.3,0.8-0.4,1.1-0.1c0.3,0.3,0.4,0.8,0.1,1.1l-3.8,4.8l0,0c-0.3,0.3-0.8,0.4-1.1,0.1L39.8,149.3z"/>
	<path id="XMLID_23_" class="st0" d="M39.8,148.9c-0.3-0.3-0.4-0.8-0.1-1.1c0.3-0.3,0.8-0.4,1.1-0.1l2.3,1.9l3.3-4.1
		c0.3-0.3,0.8-0.4,1.1-0.1c0.3,0.3,0.4,0.8,0.1,1.1l-3.8,4.8l0,0c-0.3,0.3-0.8,0.4-1.1,0.1L39.8,148.9z"/>
</g>
<path id="XMLID_26_" class="st2" d="M-34.1,110V83.8c0-0.9-0.7-1.7-1.7-1.7h-54.4c-2.2,0-2.6,1.8-1.5,3.8c2.2,4,6.8,9.9,7.7,10.9
	c-0.8,0.8-5.4,6.9-7.7,11.1c-1.1,2-0.7,3.7,1.5,3.7h54.4C-34.9,111.6-34.1,110.9-34.1,110z"/>
<path id="XMLID_27_" class="st10" d="M-123.2-41.8c0.4-0.4,1-0.4,1.4,0c0.4,0.4,0.4,1,0,1.4l-2.3,2.3l2.2,2.2c0.4,0.4,0.4,1,0,1.4
	c-0.4,0.4-1,0.4-1.4,0l-2.9-2.9l-0.1-0.1c-0.4-0.4-0.4-1,0-1.4L-123.2-41.8z"/>
<path id="XMLID_28_" class="st10" d="M-116.7-16.4c-0.4-0.4-0.4-1,0-1.4c0.4-0.4,1-0.4,1.4,0l3,3c0.4,0.4,0.4,1,0,1.4l-0.1,0.1
	l-2.9,2.9c-0.4,0.4-1,0.4-1.4,0c-0.4-0.4-0.4-1,0-1.4l2.2-2.2L-116.7-16.4z"/>
<g id="XMLID_29_">
	<path id="XMLID_42_" class="st11" d="M99.9,19.2c0,5.7,4.1,11.2,11.8,11.2c3.3,0,6.8-1.1,9.1-3.1l-2.7-5c-1.7,1.2-3.8,2.2-5.9,2.2
		c-2.3,0-4.4-1.2-5-3.8h13.5c0.1-0.7,0.2-1.5,0.2-2.2c0-5.9-3.6-10.4-9.9-10.4C104.1,8,99.9,12.9,99.9,19.2L99.9,19.2z M107.4,16.5
		c0.4-1.7,1.4-3.2,3.5-3.2c1.8,0,3,1.5,3,3.2H107.4z"/>
	<path id="XMLID_41_" class="st11" d="M86.5,22c0,7.2,6.6,8.1,10,8.1c0.8,0,1.4-0.1,2-0.1v-6.2c-0.5,0-0.7,0-1,0
		c-1.4,0-3.8-0.3-3.8-2.7v-6.6h4.5V8.9h-4.5V2.7h-7v6.2h-3v5.6h2.7V22z"/>
	<path id="XMLID_38_" class="st11" d="M61.7,19.2c0,5.7,4.1,11.2,11.8,11.2c3.3,0,6.8-1.1,9.1-3.1l-2.7-5c-1.7,1.2-3.8,2.2-5.9,2.2
		c-2.3,0-4.5-1.2-5-3.8h13.5c0.1-0.7,0.2-1.5,0.2-2.2c0-5.9-3.6-10.4-9.9-10.4C65.9,8,61.7,12.9,61.7,19.2L61.7,19.2z M69.2,16.5
		c0.4-1.7,1.4-3.2,3.5-3.2c1.8,0,3,1.5,3,3.2H69.2z"/>
	<path id="XMLID_37_" class="st11" d="M50.1,29.9h7.2V14.5h4V8.9h-4V8.2c0-1.8,2.2-2.1,3.6-2.1c0.5,0,1,0,1.2,0.1V0.1
		C61.3,0,60.6,0,59.9,0c-3.5,0-9.8,1-9.8,8v0.9h-2.6v5.6h2.6V29.9z"/>
	<path id="XMLID_34_" class="st11" d="M25,19.2c0,5.7,4.1,11.2,11.8,11.2c3.3,0,6.8-1.1,9.1-3.1l-2.7-5c-1.7,1.2-3.8,2.2-5.9,2.2
		c-2.3,0-4.4-1.2-5-3.8h13.5c0.1-0.7,0.2-1.5,0.2-2.2C46,12.4,42.5,8,36.1,8C29.2,8,25,12.9,25,19.2L25,19.2z M32.5,16.5
		c0.4-1.7,1.4-3.2,3.5-3.2c1.8,0,3,1.5,3,3.2H32.5z"/>
	<path id="XMLID_31_" class="st11" d="M0,19.2c0,6.7,3.8,11.2,9.6,11.2c2.5,0,4.9-1.1,6.2-3.1h0.1c0,0,0,0.5,0,1.2v1.4h6.7V0.2h-7.2
		v8.6c0,0.5,0,1,0,1h-0.1C14,8.3,11.7,8,9.8,8C4.1,8,0,12.4,0,19.2L0,19.2z M7.2,19.2c0-3.3,2-5.1,4.2-5.1c2.8,0,4.2,2.5,4.2,5.1
		c0,3.7-2,5.3-4.2,5.3C8.9,24.5,7.2,22.4,7.2,19.2z"/>
	<path id="XMLID_30_" class="st11" d="M129.4,20.8l0.7,2l2.4,0.2c0.7,0,1.1,0.6,1.1,1.3c0,0.4-0.2,0.7-0.5,0.9l0,0l-1.7,1.3l0.6,2.3
		c0.2,0.6-0.2,1.3-0.8,1.4c-0.3,0.1-0.7,0-1-0.2l-1.8-1.2l-2,1.3c-0.6,0.3-1.3,0.2-1.6-0.4c-0.2-0.3-0.2-0.7-0.1-1.1l0.6-2l-1.8-1.5
		c-0.5-0.4-0.6-1.2-0.2-1.7c0.2-0.3,0.6-0.4,1-0.4l2.1,0l0.9-2.2c0.2-0.6,0.9-0.9,1.5-0.7C129.1,20.1,129.3,20.4,129.4,20.8z"/>
</g>
<g id="XMLID_45_">
	<g id="XMLID_46_">
		<path id="XMLID_48_" class="st12" d="M-55.3,160.2c-0.4-0.4-0.4-1,0-1.4c0.4-0.4,1-0.4,1.4,0l6.2,6.2c0.4,0.4,0.4,1,0,1.4
			c-0.4,0.4-1,0.4-1.4,0L-55.3,160.2z"/>
		<path id="XMLID_47_" class="st12" d="M-53.9,166.3c-0.4,0.4-1,0.4-1.4,0c-0.4-0.4-0.4-1,0-1.4l6.2-6.2c0.4-0.4,1-0.4,1.4,0
			c0.4,0.4,0.4,1,0,1.4L-53.9,166.3z"/>
	</g>
</g>
<path id="XMLID_49_" class="st13" d="M-108.2,36.6c-0.6-0.6-0.6-1.5,0-2.1c0.6-0.6,1.5-0.6,2.1,0l1.7,1.7l4.2-5.2
	c0.5-0.6,1.5-0.7,2.1-0.2c0.6,0.5,0.7,1.5,0.2,2.1l-5.2,6.4c-0.1,0.1-0.1,0.1-0.2,0.2c-0.6,0.6-1.5,0.6-2.1,0L-108.2,36.6z"/>
<path id="XMLID_50_" class="st14" d="M-5.6,178.4c4,0,7.3,2.9,7.3,6.4c0,3.5-3.2,6.4-7.3,6.4c-1.2,0-2.4-0.3-3.4-0.7
	c-0.4-0.2-3.3,1.4-3.6,1.2c-0.8-0.6,1-3.2,0.5-4.1c-0.5-0.8-0.7-1.8-0.7-2.8C-12.8,181.3-9.6,178.4-5.6,178.4z"/>
<path id="XMLID_52_" class="st14" d="M22.8,188.8c-1.1,0-2.1-0.6-2.7-1.4c-1.6-2.3,0.1-5.2,2.7-5.2c0.7,0,1.7,0.3,2.1,0.8
	c0.1,0.1,0.2,0.1,0.2,0.2c0.2,0.2,0.5,0.7,0.7,1c0.4,0.8,0.4,1.9,0,2.7c-0.4,0.8-0.9,1.3-1.7,1.7C23.8,188.6,23.3,188.8,22.8,188.8
	L22.8,188.8z M22.6,190.8c1.9,0,3.6-0.7,5.2-1.8c0.8-0.6,1.9-1.6,2.6-2.4c0.6-0.8,0.6-1.5,0-2.3c-0.1-0.1-0.1-0.1-0.2-0.2
	c-0.5-0.7-1.8-1.7-2.4-2.2c-0.7-0.5-1.3-0.8-2.1-1.2c-2.8-1.2-5.5-0.5-7.8,1.2c-0.9,0.6-1.9,1.5-2.6,2.4c-0.6,0.8-0.6,1.6,0,2.3
	l0.8,0.9C17.7,189.1,20.2,190.8,22.6,190.8z"/>
<path id="XMLID_51_" class="st14" d="M20.8,185.4c0,1.9,2.1,2.6,3.2,1.7c0.1,0,0.1-0.1,0.1-0.1c0.4-0.4,0.7-0.9,0.7-1.5
	c-0.2,0-0.3,0.3-0.9,0.3c-1.1,0-1.5-1.4-0.7-2c0.1-0.1,0.2-0.1,0.2-0.2c-0.2-0.1-0.5-0.1-0.7-0.1C21.7,183.4,20.8,184.3,20.8,185.4z
	"/>
<path id="XMLID_55_" class="st11" d="M73.7-188.8c2.6,0,5,1.1,6.7,2.8l0,0l0,0c1.7,1.7,2.7,4.1,2.7,6.7c0,4-3.5,8.6-6.3,12.4
	c-0.7,0.9-1.3,1.8-1.9,2.6c-0.5,0.7-1.4,0.8-2.1,0.4c-0.1-0.1-0.3-0.2-0.4-0.4l0,0c-0.5-0.7-1.1-1.5-1.7-2.3
	c-3-3.9-6.5-8.6-6.5-12.7c0-2.6,1.1-5,2.8-6.7l0,0l0,0C68.7-187.8,71.1-188.8,73.7-188.8L73.7-188.8z M78.2-183.9
	c-1.2-1.2-2.8-1.9-4.6-1.9c-1.8,0-3.4,0.7-4.6,1.9c-1.2,1.2-1.9,2.8-1.9,4.6c0,3.1,3.2,7.3,5.9,10.9l0.6,0.7l0.7-1
	c2.6-3.4,5.7-7.6,5.7-10.6C80.1-181.2,79.4-182.8,78.2-183.9z"/>
<path id="XMLID_58_" class="st11" d="M90-163.4c3.7,0,7,1.5,9.4,3.9c2.4,2.4,3.9,5.7,3.9,9.4c0,5.7-5.1,12.5-9.3,18
	c-1,1.4-2,2.7-2.8,3.8c-0.5,0.7-1.4,0.8-2.1,0.4c-0.1-0.1-0.3-0.2-0.4-0.4l0,0c-0.8-1.1-1.7-2.3-2.6-3.5c-4.3-5.7-9.5-12.6-9.5-18.4
	c0-3.7,1.5-7,3.9-9.4l0,0l0,0l0,0C83-161.9,86.3-163.4,90-163.4z"/>
</svg>
