<svg xmlns="http://www.w3.org/2000/svg" xmlns:xlink="http://www.w3.org/1999/xlink" preserveAspectRatio="xMidYMid" width="16" height="19" viewBox="0 0 16 19">
  <defs>
    <style>
      .cls-1 {
        fill: #868686;
        fill-rule: evenodd;
      }
    </style>
  </defs>
  <path d="M15.742,5.632 L15.796,5.496 L15.339,5.099 L15.339,5.099 L12.719,2.824 L9.642,0.152 L9.516,0.206 C9.220,0.082 8.898,-0.000 8.615,-0.000 L1.231,-0.000 C0.552,-0.000 -0.000,0.533 -0.000,1.187 L-0.000,17.812 C-0.000,18.467 0.552,19.000 1.231,19.000 L14.769,19.000 C15.448,19.000 16.000,18.467 16.000,17.812 L16.000,6.531 C16.000,6.241 15.898,5.919 15.742,5.632 ZM9.846,1.927 L13.781,5.344 L9.846,5.344 L9.846,1.927 ZM14.767,17.812 L1.231,17.812 L1.231,1.187 L8.615,1.187 L8.615,5.937 L9.231,6.531 L14.769,6.531 L14.767,17.812 Z" class="cls-1"/>
</svg>
