<svg xmlns="http://www.w3.org/2000/svg" xmlns:xlink="http://www.w3.org/1999/xlink" preserveAspectRatio="xMidYMid" width="26" height="26" viewBox="0 0 26 26">
  <defs>
    <style>
      .cls-1 {
        fill: #a7a7a7;
        fill-rule: evenodd;
      }
    </style>
  </defs>
  <path d="M13.000,26.000 C5.832,26.000 -0.000,20.168 -0.000,13.000 C-0.000,5.832 5.832,-0.000 13.000,-0.000 C20.168,-0.000 26.000,5.832 26.000,13.000 C26.000,20.168 20.168,26.000 13.000,26.000 ZM13.000,1.625 C6.728,1.625 1.625,6.728 1.625,13.000 C1.625,19.272 6.728,24.375 13.000,24.375 C19.272,24.375 24.375,19.272 24.375,13.000 C24.375,6.728 19.272,1.625 13.000,1.625 ZM19.500,13.812 L8.461,13.812 L11.949,17.301 C12.267,17.618 12.267,18.132 11.949,18.449 C11.791,18.608 11.583,18.687 11.375,18.687 C11.167,18.687 10.959,18.608 10.801,18.449 L5.926,13.574 C5.608,13.257 5.608,12.743 5.926,12.425 L10.801,7.551 C11.118,7.233 11.632,7.233 11.949,7.551 C12.267,7.868 12.267,8.382 11.949,8.699 L8.461,12.187 L19.500,12.187 C19.949,12.187 20.312,12.551 20.312,13.000 C20.312,13.449 19.949,13.812 19.500,13.812 Z" class="cls-1"/>
</svg>
