<?xml version="1.0" encoding="utf-8"?>
<!-- Generator: Adobe Illustrator 19.0.0, SVG Export Plug-In . SVG Version: 6.00 Build 0)  -->
<svg version="1.1" id="Layer_1" xmlns="http://www.w3.org/2000/svg" xmlns:xlink="http://www.w3.org/1999/xlink" x="0px" y="0px"
	 viewBox="0 0 16.3 18.2" style="enable-background:new 0 0 16.3 18.2;" xml:space="preserve">


	<path class="st0" fill-rule="evenodd" clip-rule="evenodd" fill="#23C0F1" d="M0.7,2.6C3.1,2,4.6,1.5,7.3,0.2C7.9-0.1,8.6,0,9.1,0.3c2,0.9,4,1.8,6.4,2.3c0.5,0.2,0.7,0.6,0.7,1.1
		c0,2.8-0.8,5.7-2.1,8.2c-1.3,2.5-3.2,4.7-5.4,6.1c-0.4,0.2-0.9,0.2-1.2,0h0c-2.3-1.5-4.1-3.6-5.3-6C0.9,9.5,0.1,6.6,0,3.7
		C0,3.2,0.3,2.8,0.7,2.6L0.7,2.6z"/>
	<path class="st1" fill-rule="evenodd" clip-rule="evenodd" fill="#256EB6" d="M4.6,9.1C4.2,8.8,4.2,8.3,4.5,8c0.3-0.3,0.8-0.4,1.1-0.1l2.3,1.9l3.3-4.1c0.3-0.3,0.8-0.4,1.1-0.1
			c0.3,0.3,0.4,0.8,0.1,1.1l-3.8,4.8l0,0c-0.3,0.3-0.8,0.4-1.1,0.1L4.6,9.1z"/>
	<path class="st2" fill-rule="evenodd" clip-rule="evenodd" fill="#FFFFFF" d="M4.6,8.6C4.2,8.4,4.2,7.9,4.5,7.5c0.3-0.3,0.8-0.4,1.1-0.1l2.3,1.9l3.3-4.1C11.5,4.8,12,4.8,12.3,5
			c0.3,0.3,0.4,0.8,0.1,1.1L8.6,11l0,0c-0.3,0.3-0.8,0.4-1.1,0.1L4.6,8.6z"/>



</svg>
