<svg xmlns="http://www.w3.org/2000/svg" xmlns:xlink="http://www.w3.org/1999/xlink" preserveAspectRatio="xMidYMid" width="13" height="13" viewBox="0 0 13 13">
  <defs>
    <style>
      .cls-1 {
        fill: #a1a1a1;
        fill-rule: evenodd;
      }
    </style>
  </defs>
  <path d="M6.500,13.000 C2.910,13.000 -0.000,10.090 -0.000,6.500 C-0.000,2.910 2.910,-0.000 6.500,-0.000 C10.090,-0.000 13.000,2.910 13.000,6.500 C13.000,10.090 10.090,13.000 6.500,13.000 ZM6.500,0.812 C3.364,0.812 0.812,3.364 0.812,6.500 C0.812,9.636 3.364,12.200 6.500,12.200 C9.636,12.200 12.187,9.636 12.187,6.500 C12.187,3.364 9.636,0.812 6.500,0.812 ZM8.249,8.827 L6.238,6.816 C6.232,6.810 6.235,6.800 6.229,6.794 C6.148,6.720 6.094,6.618 6.094,6.500 L6.094,2.437 C6.094,2.213 6.276,2.031 6.500,2.031 C6.724,2.031 6.906,2.213 6.906,2.437 L6.906,6.335 L8.824,8.252 C8.982,8.411 8.982,8.668 8.824,8.827 C8.665,8.986 8.408,8.986 8.249,8.827 Z" class="cls-1"/>
</svg>
