<svg xmlns="http://www.w3.org/2000/svg" xmlns:xlink="http://www.w3.org/1999/xlink" preserveAspectRatio="xMidYMid" width="21" height="21" viewBox="0 0 21 21">
  <defs>
    <style>
      .cls-1 {
        fill: #868686;
        fill-rule: evenodd;
      }
    </style>
  </defs>
  <path d="M18.375,3.281 L11.156,3.281 C10.445,3.281 9.844,2.831 9.844,2.297 C9.844,1.030 8.666,-0.000 7.219,-0.000 L2.625,-0.000 C1.178,-0.000 -0.000,1.030 -0.000,2.297 L-0.000,20.344 L0.656,20.344 L0.656,21.000 L20.344,21.000 L20.344,20.344 L21.000,20.344 L21.000,5.906 C21.000,4.458 19.822,3.281 18.375,3.281 ZM2.625,1.312 L7.219,1.312 C7.930,1.312 8.531,1.763 8.531,2.297 C8.531,3.563 9.709,4.594 11.156,4.594 L18.375,4.594 C19.099,4.594 19.687,5.183 19.687,5.906 L1.312,5.906 L1.312,2.297 C1.312,1.763 1.914,1.312 2.625,1.312 ZM19.687,7.219 L19.687,19.687 L1.312,19.687 L1.312,7.219 L19.687,7.219 Z" class="cls-1"/>
</svg>
