<svg xmlns="http://www.w3.org/2000/svg" xmlns:xlink="http://www.w3.org/1999/xlink" preserveAspectRatio="xMidYMid" width="23" height="16" viewBox="0 0 23 16">
  <defs>
    <style>
      .cls-1 {
        fill: #868686;
        fill-rule: evenodd;
      }
    </style>
  </defs>
  <path d="M21.291,0.193 C21.049,0.079 20.727,-0.000 20.294,-0.000 L2.706,-0.000 C2.273,-0.000 1.951,0.079 1.709,0.193 C0.710,0.585 0.000,1.544 0.000,2.667 L0.000,13.333 C0.000,14.449 0.700,15.403 1.688,15.800 C1.928,15.917 2.254,16.000 2.706,16.000 L20.294,16.000 C20.746,16.000 21.072,15.917 21.312,15.800 C22.300,15.403 23.000,14.449 23.000,13.333 L23.000,2.667 C23.000,1.544 22.290,0.585 21.291,0.193 ZM21.647,2.667 L21.647,13.333 C21.647,13.506 21.611,13.670 21.550,13.822 C21.463,13.722 21.364,13.620 21.242,13.515 L15.616,8.663 L21.425,2.580 C21.496,2.506 21.552,2.435 21.608,2.363 C21.632,2.461 21.647,2.562 21.647,2.667 ZM20.294,1.333 C20.418,1.333 20.537,1.355 20.651,1.386 C20.617,1.451 20.556,1.545 20.440,1.666 L12.398,10.087 C11.917,10.591 11.083,10.591 10.602,10.087 L2.560,1.666 C2.444,1.545 2.382,1.451 2.349,1.386 C2.463,1.355 2.582,1.333 2.706,1.333 L20.294,1.333 ZM1.450,13.822 C1.389,13.670 1.353,13.506 1.353,13.333 L1.353,2.667 C1.353,2.562 1.368,2.461 1.392,2.363 C1.448,2.435 1.504,2.506 1.575,2.580 L7.384,8.663 L1.758,13.515 C1.636,13.620 1.537,13.722 1.450,13.822 ZM2.706,14.667 C2.640,14.667 2.576,14.656 2.513,14.647 C2.549,14.609 2.593,14.567 2.649,14.518 L8.312,9.635 L9.617,11.001 C10.116,11.523 10.785,11.811 11.500,11.811 C12.215,11.811 12.884,11.523 13.383,11.001 L14.688,9.635 L20.351,14.518 C20.407,14.567 20.451,14.609 20.487,14.647 C20.424,14.656 20.360,14.667 20.294,14.667 L2.706,14.667 Z" class="cls-1"/>
</svg>
