<svg xmlns="http://www.w3.org/2000/svg" xmlns:xlink="http://www.w3.org/1999/xlink" preserveAspectRatio="xMidYMid" width="17.565" height="18.063" viewBox="0 0 17.565 18.063">
  <defs>
    <style>
      .cls-1 {
        fill: gray;
        fill-rule: evenodd;
      }
    </style>
  </defs>
  <path d="M17.153,17.182 L16.681,17.655 C16.159,18.176 15.313,18.176 14.791,17.655 L9.723,12.587 C8.807,13.060 7.783,13.352 6.681,13.352 C2.991,13.352 -0.000,10.361 -0.000,6.671 C-0.000,2.981 2.991,-0.010 6.681,-0.010 C10.371,-0.010 13.362,2.981 13.362,6.671 C13.362,8.043 12.946,9.316 12.237,10.377 L17.153,15.293 C17.675,15.814 17.675,16.660 17.153,17.182 ZM6.681,2.662 C4.467,2.662 2.672,4.457 2.672,6.671 C2.672,8.885 4.467,10.680 6.681,10.680 C8.895,10.680 10.689,8.885 10.689,6.671 C10.689,4.457 8.895,2.662 6.681,2.662 Z" class="cls-1"/>
</svg>
