<svg xmlns="http://www.w3.org/2000/svg" xmlns:xlink="http://www.w3.org/1999/xlink" preserveAspectRatio="xMidYMid" width="13" height="13" viewBox="0 0 13 13">
  <defs>
    <style>
      .cls-1 {
        fill: #a1a1a1;
        fill-rule: evenodd;
      }
    </style>
  </defs>
  <path d="M6.498,0.816 C7.878,0.816 9.341,1.978 9.341,2.845 L9.341,4.876 C9.341,5.657 9.016,7.152 8.144,7.838 C7.922,8.013 7.807,8.291 7.840,8.572 C7.873,8.854 8.051,9.097 8.308,9.215 L11.843,10.892 C11.871,10.904 12.182,10.956 12.182,11.391 L12.183,12.184 L0.814,12.184 L0.814,11.360 C0.814,11.037 1.056,10.936 1.153,10.891 L4.721,9.207 C4.977,9.090 5.153,8.848 5.188,8.569 C5.222,8.289 5.110,8.012 4.890,7.836 C4.046,7.158 3.653,5.669 3.653,4.876 L3.653,2.845 C3.653,1.996 5.131,0.816 6.498,0.816 M6.498,0.003 C4.704,0.003 2.840,1.501 2.840,2.845 L2.840,4.876 C2.840,5.763 3.245,7.557 4.381,8.470 L0.813,10.153 C0.813,10.153 0.001,10.515 0.001,10.965 L0.001,12.184 C0.001,12.633 0.365,12.996 0.813,12.996 L12.183,12.996 C12.631,12.996 12.995,12.633 12.995,12.184 L12.995,10.965 C12.995,10.488 12.183,10.153 12.183,10.153 L8.647,8.477 C9.773,7.591 10.153,5.851 10.153,4.876 L10.153,2.845 C10.153,1.501 8.292,0.003 6.498,0.003 L6.498,0.003 Z" class="cls-1"/>
</svg>
