<?xml version="1.0" encoding="utf-8"?>
<!-- Generator: Adobe Illustrator 18.1.1, SVG Export Plug-In . SVG Version: 6.00 Build 0)  -->
<svg version="1.1" id="Layer_1" xmlns="http://www.w3.org/2000/svg" xmlns:xlink="http://www.w3.org/1999/xlink" x="0px" y="0px"
	 viewBox="0 0 106.2 124.1" enable-background="new 0 0 106.2 124.1" xml:space="preserve">
<g>
	<g>
		<g>
			<path fill-rule="evenodd" clip-rule="evenodd" fill="#AACA3C" d="M98.7,38.9c-4.2,0-7.6,3.4-7.6,7.7v30c0,4.2,3.4,7.7,7.6,7.7
				c4.2,0,7.6-3.4,7.6-7.7v-30C106.2,42.3,102.8,38.9,98.7,38.9z M7.6,38.9c-4.2,0-7.6,3.4-7.6,7.7v30c0,4.2,3.4,7.7,7.6,7.7
				s7.6-3.4,7.6-7.7v-30C15.1,42.3,11.7,38.9,7.6,38.9z"/>
		</g>
		<g>
			<path fill-rule="evenodd" clip-rule="evenodd" fill="#AACA3C" d="M19.7,39.1v54.8c0,3.3,2.6,5.9,5.9,5.9h6.7v16.7
				c0,4.2,3.4,7.7,7.6,7.7s7.6-3.4,7.6-7.7V99.8h11.8v16.7c0,4.2,3.4,7.7,7.6,7.7c4.2,0,7.6-3.4,7.6-7.7V99.8H81
				c3.3,0,5.9-2.6,5.9-5.9V39.1H19.7z"/>
		</g>
		<g>
			<path fill-rule="evenodd" clip-rule="evenodd" fill="#AACA3C" d="M69,10.8l6.2-9c0.4-0.5,0.3-1.2-0.2-1.6
				c-0.5-0.3-1.2-0.2-1.5,0.4l-6.4,9.4c-4.3-1.7-9-2.6-13.9-2.6c-5,0-9.7,0.9-13.9,2.6l-6.4-9.4c-0.4-0.5-1.1-0.7-1.5-0.4
				c-0.5,0.3-0.6,1-0.2,1.6l6.2,9c-9.9,4.6-16.8,13.3-17.7,23.5h67.2C85.8,24.1,78.9,15.3,69,10.8z M38.9,25c-2.1,0-3.7-1.7-3.7-3.7
				s1.7-3.7,3.7-3.7c2.1,0,3.7,1.7,3.7,3.7S41,25,38.9,25z M67.7,25c-2.1,0-3.7-1.7-3.7-3.7s1.7-3.7,3.7-3.7c2.1,0,3.7,1.7,3.7,3.7
				S69.8,25,67.7,25z"/>
		</g>
	</g>
</g>
</svg>
