<?xml version="1.0" encoding="utf-8"?>
<!-- Generator: Adobe Illustrator 19.1.0, SVG Export Plug-In . SVG Version: 6.00 Build 0)  -->
<svg version="1.1" id="icon" xmlns="http://www.w3.org/2000/svg" xmlns:xlink="http://www.w3.org/1999/xlink" x="0px" y="0px"
	 viewBox="-286 388.5 37.5 17.5" style="enable-background:new -286 388.5 37.5 17.5;" xml:space="preserve">
<style type="text/css">
	.st0{fill:none;stroke:#444444;stroke-width:1.5;stroke-miterlimit:10;}
	.st1{fill:#444444;}
</style>
<path class="st0" d="M-285.2,397.2c0-3.1,2.5-5.7,5.7-5.7c3.1,0,5.7,2.5,5.7,5.7c0,3.1-2.5,5.7-5.7,5.7
	C-282.6,402.9-285.2,400.4-285.2,397.2"/>
<g>
	<path class="st1" d="M-249.2,406h-1.3c-0.4,0-0.8-0.3-0.8-0.8c0-2.9-1.9-5.3-4.3-5.3h-18.2c-0.4,0-0.8-0.3-0.8-0.8
		c0-0.4,0.3-0.8,0.8-0.8h18.2c2.6,0,4.9,2.2,5.6,5.1V391c-0.7,2.9-2.9,5.1-5.6,5.1h-18.2c-0.4,0-0.8-0.3-0.8-0.8
		c0-0.4,0.3-0.8,0.8-0.8h18.2c2.3,0,4.3-2.4,4.3-5.3c0-0.4,0.3-0.8,0.8-0.8h1.3c0.4,0,0.8,0.3,0.8,0.8v16
		C-248.5,405.6-248.8,406-249.2,406z"/>
</g>
<g>
	<path class="st1" d="M-268.1,406h-3.7c-2.3,0-4.5-1.1-5.8-3c-0.2-0.3-0.2-0.8,0.2-1c0.3-0.2,0.8-0.2,1,0.2c1,1.5,2.8,2.4,4.6,2.4
		h3.7c3.2,0,5.6-2.3,5.6-5.3c0-0.4,0.3-0.8,0.8-0.8c0.4,0,0.8,0.3,0.8,0.8C-261,403-264.1,406-268.1,406z"/>
</g>
</svg>
