<?xml version="1.0" encoding="utf-8"?>
<!-- Generator: Adobe Illustrator 18.1.1, SVG Export Plug-In . SVG Version: 6.00 Build 0)  -->
<svg version="1.1" id="icon" xmlns="http://www.w3.org/2000/svg" xmlns:xlink="http://www.w3.org/1999/xlink" x="0px" y="0px"
	 viewBox="0 0 37.3 17.5" enable-background="new 0 0 37.3 17.5" xml:space="preserve">
<path fill="none" stroke="#496DB3" stroke-miterlimit="10" d="M0.6,8.7c0-3.1,2.5-5.7,5.7-5.7c3.1,0,5.7,2.5,5.7,5.7
	c0,3.1-2.5,5.7-5.7,5.7C3.1,14.4,0.6,11.9,0.6,8.7"/>
<g>
	<path fill="#496DB3" d="M36.5,17.5h-1.3c-0.4,0-0.8-0.3-0.8-0.8c0-2.9-1.9-5.3-4.3-5.3H12c-0.4,0-0.8-0.3-0.8-0.8
		c0-0.4,0.3-0.8,0.8-0.8h18.2c2.6,0,4.9,2.2,5.6,5.1V2.5c-0.7,2.9-2.9,5.1-5.6,5.1H12c-0.4,0-0.8-0.3-0.8-0.8C11.2,6.4,11.6,6,12,6
		h18.2c2.3,0,4.3-2.4,4.3-5.3c0-0.4,0.3-0.8,0.8-0.8h1.3c0.4,0,0.8,0.3,0.8,0.8v16C37.3,17.1,36.9,17.5,36.5,17.5z"/>
</g>
<g>
	<path fill="#496DB3" d="M17.7,17.5H14c-2.3,0-4.5-1.1-5.8-3c-0.2-0.3-0.2-0.8,0.2-1c0.3-0.2,0.8-0.2,1,0.2c1,1.5,2.8,2.4,4.6,2.4
		h3.7c3.2,0,5.6-2.3,5.6-5.3c0-0.4,0.3-0.8,0.8-0.8c0.4,0,0.8,0.3,0.8,0.8C24.8,14.5,21.6,17.5,17.7,17.5z"/>
</g>
</svg>
