<?xml version="1.0" encoding="utf-8"?>
<!-- Generator: Adobe Illustrator 18.1.1, SVG Export Plug-In . SVG Version: 6.00 Build 0)  -->
<svg version="1.1" id="icon" xmlns="http://www.w3.org/2000/svg" xmlns:xlink="http://www.w3.org/1999/xlink" x="0px" y="0px"
	 viewBox="0 0 612 792" enable-background="new 0 0 612 792" xml:space="preserve">
<path fill="none" stroke="#4276EC" stroke-width="1.7" stroke-miterlimit="10" d="M555,541.2c25.7-44.1,40.4-93.7,40.4-148.9
	c0-159.9-128.6-288.5-288.5-288.5c-99.2,0-187.5,51.5-238.9,128.6l0,0c-14.7,22.1-23.9,49.6-23.9,79l0,0
	c0,79,64.3,143.4,143.4,143.4c49.6,0,91.9-23.9,117.6-62.5c0,0,0-1.8,1.8-1.8c25.7-38.6,69.8-64.3,119.5-64.3
	c79,0,143.4,64.3,143.4,143.4l0,0C571.6,497.1,566.1,521,555,541.2z"/>
<path fill="none" stroke="#4276EC" stroke-width="1.7" stroke-miterlimit="10" d="M428.2,328c-49.6,0-93.7,25.7-119.5,64.3l0,0
	c0,0,0,1.8-1.8,1.8c-25.7,36.8-69.8,62.5-117.6,62.5c-79,0-143.4-64.3-143.4-143.4l0,0c0-29.4,9.2-57,23.9-79l0,0
	c-33.1,44.1-51.5,99.2-51.5,158.1c0,159.9,128.6,288.5,288.5,288.5c95.6,0,181.9-47.8,233.4-119.5c1.8-3.7,3.7-5.5,7.4-9.2
	c1.8-3.7,5.5-7.4,7.4-11c11-20.2,18.4-44.1,16.5-68l0,0C571.6,392.3,507.2,328,428.2,328z"/>
</svg>
