<?xml version="1.0" encoding="utf-8"?>
<!-- Generator: Adobe Illustrator 18.1.1, SVG Export Plug-In . SVG Version: 6.00 Build 0)  -->
<svg version="1.1" id="Шар_1" xmlns="http://www.w3.org/2000/svg" xmlns:xlink="http://www.w3.org/1999/xlink" x="0px" y="0px"
	 viewBox="94.1 231.1 423.2 329.2" enable-background="new 94.1 231.1 423.2 329.2" xml:space="preserve">
<path display="none" fill="#FFFFFF" stroke="#000000" d="M1.6,192h612v408H1.6V192z"/>
<path fill="#C60C30" d="M220.8,340.1c31.3-46.9,94.6-59.5,141.5-28.3s59.5,94.6,28.3,141.5"/>
<path fill="#003478" d="M391.5,451.9c-31.3,46.9-94.6,59.5-141.5,28.3s-59.5-94.6-28.3-141.5"/>
<path fill="#003478" d="M305.5,396.6c15.6-23.4,47.3-29.8,70.7-14.1c23.4,15.6,29.8,47.3,14.1,70.7"/>
<path fill="#C60C30" d="M307.6,393.7c-15.6,23.4-47.3,29.8-70.7,14.1s-29.8-47.3-14.1-70.7"/>
<path d="M164.7,240.5l-56.5,84.7l-14.1-9.4l56.5-84.7L164.7,240.5z"/>
<path d="M207.1,268.8l-56.5,84.7l-14.1-9.4l56.5-84.7L207.1,268.8z"/>
<path d="M185.9,254.7l-56.5,84.7l-14.1-9.4l56.5-84.7L185.9,254.7z"/>
<path d="M497.2,462.3l-25.9,38.8l-14.1-9.4l25.9-38.8L497.2,462.3z"/>
<path d="M466.6,508.2L440.7,547l-14.1-9.4l25.9-38.8L466.6,508.2z"/>
<path d="M518.3,476.4l-25.9,38.8l-14.1-9.4l25.9-38.8L518.3,476.4z"/>
<path d="M476,448.2L450.1,487l-14.1-9.4l25.9-38.8L476,448.2z"/>
<path d="M445.4,494.1l-25.9,38.8l-14.1-9.4l25.9-38.8L445.4,494.1z"/>
<path d="M487.7,522.3l-25.9,38.8l-14.1-9.4l25.9-38.8L487.7,522.3z"/>
<path d="M418.5,259.9l25.9,38.8l-14.1,9.4l-25.9-38.8L418.5,259.9z"/>
<path d="M449.1,305.8l25.9,38.8l-14.1,9.4L435,315.2L449.1,305.8z"/>
<path d="M491.5,277.5l25.9,38.8l-14.1,9.4L477.3,287L491.5,277.5z"/>
<path d="M460.9,231.7l25.9,38.8l-14.1,9.4l-25.9-38.8L460.9,231.7z"/>
<path d="M439.7,245.8l56.5,84.7l-14.1,9.4l-56.5-84.7L439.7,245.8z"/>
<path d="M172.5,546.2l-25.9-38.8l14.1-9.4l25.9,38.8L172.5,546.2z"/>
<path d="M141.9,500.3L116,461.5l14.1-9.4l25.9,38.8L141.9,500.3z"/>
<path d="M151.3,560.3l-56.5-84.7l14.1-9.4l56.5,84.7L151.3,560.3z"/>
<path d="M193.7,532.1l-56.5-84.7l14.1-9.4l56.5,84.7L193.7,532.1z"/>
</svg>
