<?xml version="1.0" encoding="utf-8"?>
<!-- Generator: Adobe Illustrator 18.1.1, SVG Export Plug-In . SVG Version: 6.00 Build 0)  -->
<svg version="1.1" id="_x3C_Слой_x3E_" xmlns="http://www.w3.org/2000/svg" xmlns:xlink="http://www.w3.org/1999/xlink" x="0px"
	 y="0px" viewBox="0 0 255 146.5" enable-background="new 0 0 255 146.5" xml:space="preserve">
<g>
	<path fill="#001C58" d="M137.3,89.5c3.4-2.4,5.9-2.2,8.9-5.2c2.8-2.8-1-6-3.9-8.1c-3.1-2.3-1.2-2.7,2.7-3.4
		c10.9-2.1,25.6-5.7,31.7-7.4c15.2-4.2,28.6-15,28.5-27.3c-0.1-8.4-6-15.6-12.2-20.7c-6.2-5.1-12.9-8-15-8.6
		c-4.4-1.3-2.1,1.7-2.1,1.7s3.9,1.4,12.2,7.6c6.1,4.6,11.9,11.5,12,19.1c0.2,19.6-26.5,25.4-26.5,25.4s24.2-7.2,24-25.4
		c-0.1-7.8-8.3-17.9-19.4-25.3C170,6.4,160.5,3.4,158.5,3c-5.7-0.9-3,1.9-3,1.9s7.5,1.9,17.2,8.5c8,5.4,15.5,14.2,15.6,24.4
		c0.1,13.1-13,19.9-18.8,22.8c-8.8,4.4-18.4,6.6-18.4,6.6s10.9-2.9,19.5-8.4c7.9-5,14.8-13.5,14.7-21c-0.1-14-14.8-25.1-27.1-31.5
		c-6.5-3.4-12.4-5.4-15-5.9c-2.9-0.6-7-0.8-2.1,2.2c3.6,2.3,8.7,5.5,13,9.5c7.8,7.2,14.7,17.2,14.8,26.3
		c0.1,11.6-7.8,20.7-16.6,24.4c-8,3.3-15.9,4.2-18.4,4.7c-3.7,0.8-3.5,3.8-2.9,4.5c1.9,2.3,6.7,4,6.7,7.9c0,6.8-9.1,7.6-10.2,7.6
		c-1.1,0-10.2-0.8-10.2-7.6c0-3.9,4.8-5.7,6.7-7.9c0.6-0.7,0.8-3.8-2.9-4.5c-2.5-0.5-10.4-1.4-18.4-4.7C93.9,59.1,86,50,86.1,38.4
		c0.1-9.1,7-19.1,14.8-26.3c4.3-3.9,9.4-7.2,13-9.5c4.9-3,0.7-2.9-2.1-2.2c-2.6,0.6-8.5,2.5-15,5.9c-12.3,6.4-27,17.5-27.1,31.5
		c-0.1,7.5,6.8,16,14.7,21c8.6,5.5,19.5,8.4,19.5,8.4s-9.5-2.2-18.4-6.6c-5.8-2.9-18.9-9.7-18.8-22.8c0.1-10.2,7.7-18.9,15.6-24.4
		c9.7-6.6,17.2-8.5,17.2-8.5s2.7-2.8-3-1.9c-2,0.3-11.5,3.4-19.7,8.8c-11.1,7.4-19.3,17.5-19.4,25.3c-0.2,18.2,24,25.4,24,25.4
		S54.8,56.6,55,37c0.1-7.5,5.9-14.5,12-19.1c8.3-6.2,12.2-7.6,12.2-7.6s2.3-2.9-2.1-1.7c-2.1,0.6-8.8,3.5-15,8.6
		C55.9,22.4,49.9,29.7,49.9,38c-0.1,12.4,13.3,23.1,28.5,27.3c6.1,1.7,20.7,5.3,31.7,7.4c3.9,0.8,5.7,1.2,2.7,3.4
		c-2.8,2.1-6.6,5.4-3.9,8.1c3,3,5.5,2.8,8.9,5.2c3.4,2.4,4.6,5.1,9.8,5.1C132.8,94.7,133.9,91.9,137.3,89.5z"/>
	<g>
		<path fill="#001C58" d="M26.2,135.6c0-5.6-3.1-8.3-9.8-11.1c-4.8-2-8.4-3.4-8.4-6.9c0-1.2,0.3-4.7,7-4.7c5.6,0,9.6,2.4,9.6,2.4v-6
			c0,0-4.8-1.7-10.1-1.7C0.3,107.5,0,116.5,0,118.1c0,6.6,5.2,8.9,11.6,11.3c1.6,0.6,6.9,2,6.9,6.2c0,1.6-1,5.2-8.9,5.2
			c-5,0-9.2-2.1-9.2-2.1v6.1c0,0,3.5,1.7,10,1.7C22.9,146.5,26.2,140.1,26.2,135.6z"/>
		<path fill="#001C58" d="M48.1,136.9c0-3.3-1.6-5.7-7-8c-3.9-1.7-7.5-3.2-7.5-5.8c0-1,0.5-3.6,5.3-3.6c4.6,0,7.7,2.2,7.7,2.2V116
			c0,0-2.9-1.6-8.8-1.6c-11.1,0-11.5,7.2-11.5,8.6c0,4.8,3.3,7,7.9,9c2.1,0.9,6.6,2.1,6.6,5.6c0,1.3-1.2,3.9-6.5,3.9
			c-3.9,0-7.5-1.8-7.5-1.8v5.5c0,0,2.4,1.3,8.1,1.3C44.7,146.3,48.1,141.4,48.1,136.9z"/>
		<polygon fill="#001C58" points="106.6,115 100.6,115 100.6,137 87.8,115 79.4,115 79.4,145.3 85.4,145.3 85.4,122.7 98.6,145.3 
			106.6,145.3 		"/>
		<path fill="#001C58" d="M72.1,145.3h6.5l-2.6-6.8l-1.8-4.7L66.9,115h-8.5l-7.3,18.9l-1.8,4.7l-2.6,6.8h6.5l2.6-6.7h13.6
			L72.1,145.3z M62.7,120.9l5,12.9h-9.9L62.7,120.9z"/>
		<path fill="#001C58" d="M124.2,128.5v4.5h7.5v7.7c0,0-1.2,0.8-4.5,0.8c-10.9,0-11.7-8.9-11.7-10.7c0-3.6,1.3-6.6,3.2-8.6
			c2.1-2.2,5.3-3,9.5-3c5.3,0,8.8,1.9,8.8,1.9v-5c0,0-4.4-1.5-9.4-1.5c-5.9,0-10.9,1.6-14.2,4.7c-3,2.7-4.8,7.5-4.8,11.6
			c0,3.7,1.7,15.7,18.3,15.7c6.3,0,11.2-2.2,11.2-2.2l0-15.6H124.2z"/>
		<polygon fill="#001C58" points="223.4,115 217.4,115 217.4,137 204.6,115 196.1,115 196.1,145.3 202.1,145.3 202.1,122.7 
			215.3,145.3 223.4,145.3 		"/>
		<path fill="#001C58" d="M241,128.5v4.5h7.5v7.7c0,0-1.2,0.8-4.5,0.8c-10.9,0-11.7-8.9-11.7-10.7c0-3.6,1.3-6.6,3.2-8.6
			c2.1-2.2,5.3-3,9.5-3c5.3,0,8.8,1.9,8.8,1.9v-5c0,0-4.4-1.5-9.4-1.5c-5.9,0-10.9,1.6-14.2,4.7c-3,2.7-4.8,7.5-4.8,11.6
			c0,3.7,1.7,15.7,18.3,15.7c6.3,0,11.2-2.2,11.2-2.2l0-15.6H241z"/>
		<polygon fill="#001C58" points="156.5,131.9 169.2,108.3 162.4,108.3 153,125.8 142.7,108.3 135.8,108.3 149.6,132 141.8,146.5 
			148.7,146.5 153.2,138.1 		"/>
		<path fill="#001C58" d="M188.1,117.3c-3.6-2.7-7.7-3.1-9.8-3.1c-2.2,0-6.3,0.4-9.8,3.1c-3.2,2.5-6.5,6.3-6.5,12.9
			c0,6.1,2.4,9.6,5.4,12.4c3.5,3.3,9.3,3.8,10.9,3.8s7.4-0.5,10.9-3.8c3-2.8,5.3-6.3,5.3-12.4C194.6,123.6,191.3,119.8,188.1,117.3z
			 M178.3,141.5c-0.4,0-9.3,0.6-9.3-11.2c0-11.5,9.1-11.2,9.3-11.2c0.2,0,9.3-0.4,9.3,11.2C187.6,142.1,178.6,141.5,178.3,141.5z"/>
	</g>
</g>
</svg>
