<svg xmlns="http://www.w3.org/2000/svg" xmlns:xlink="http://www.w3.org/1999/xlink" preserveAspectRatio="xMidYMid" width="17" height="15" viewBox="0 0 17 15">
  <defs>
    <style>

      .cls-2 {
        fill: #ffffff;
      }
    </style>
  </defs>
  <path d="M16.036,13.321 C16.036,13.321 14.178,15.181 14.178,15.181 C14.178,15.181 10.486,11.489 10.486,11.489 C9.378,12.381 7.989,12.937 6.455,12.937 C2.886,12.937 -0.007,10.044 -0.007,6.476 C-0.007,2.906 2.886,0.013 6.455,0.013 C10.023,0.013 12.916,2.906 12.917,6.476 C12.917,7.553 12.629,8.554 12.162,9.447 C12.162,9.447 16.036,13.321 16.036,13.321 ZM6.455,2.642 C4.340,2.642 2.622,4.362 2.622,6.476 C2.622,8.588 4.342,10.308 6.455,10.308 C8.568,10.308 10.289,8.590 10.289,6.476 C10.289,4.361 8.568,2.642 6.455,2.642 Z" id="path-1" class="cls-2" fill-rule="evenodd"/>
</svg>
