<?xml version="1.0" encoding="utf-8"?>
<!-- Generator: Adobe Illustrator 18.1.1, SVG Export Plug-In . SVG Version: 6.00 Build 0)  -->
<svg version="1.1" id="Слой_3" xmlns="http://www.w3.org/2000/svg" xmlns:xlink="http://www.w3.org/1999/xlink" x="0px" y="0px"
	 viewBox="0 0 166.7 166.7" enable-background="new 0 0 166.7 166.7" xml:space="preserve">
<g>
	<path fill="#CA4640" stroke="#FFFFFF" stroke-width="2" stroke-miterlimit="10" d="M165.7,83.3c0-12.4-2.8-24.2-7.7-34.8
		l-43.9,24.8c1,3.1,1.6,6.5,1.6,10c0,10.5-5,19.9-12.8,25.8l31.4,38.9C153.4,132.9,165.7,109.6,165.7,83.3z"/>
	<rect x="82" y="1" fill="#A76987" stroke="#FFFFFF" stroke-width="2" stroke-miterlimit="10" width="0" height="50"/>
	<path fill="#7D5EA5" stroke="#FFFFFF" stroke-width="2" stroke-miterlimit="10" d="M51,83.3c0-3,0.4-5.9,1.2-8.7l-44-24.9
		C3.6,60,1,71.4,1,83.3c0,25.5,11.6,48.3,29.8,63.4l31.4-38.9C55.4,101.9,51,93.1,51,83.3z"/>
	<path fill="#9BC24D" stroke="#FFFFFF" stroke-width="2" stroke-miterlimit="10" d="M83.3,115.7c-8.1,0-15.4-3-21.1-7.9l-31.4,38.9
		c14.3,11.8,32.6,18.9,52.5,18.9c19.2,0,36.9-6.6,50.9-17.7l-31.4-38.9C97.4,113.2,90.6,115.7,83.3,115.7z"/>
	<path fill="#3CB0CF" stroke="#FFFFFF" stroke-width="2" stroke-miterlimit="10" d="M82,51V1C49.1,1.6,20.9,21.4,8.2,49.7l44,24.9
		C55.9,61.4,67.8,51.6,82,51z"/>
	<path fill="#457EC0" stroke="#FFFFFF" stroke-width="2" stroke-miterlimit="10" d="M83.3,51c14.4,0,26.6,9.4,30.8,22.4L158,48.5
		C144.8,20.5,116.4,1,83.3,1c-0.4,0-0.9,0-1.3,0l0,50C82.4,51,82.9,51,83.3,51z"/>
</g>
</svg>
