<?xml version="1.0" encoding="utf-8"?>
<!-- Generator: Adobe Illustrator 18.1.1, SVG Export Plug-In . SVG Version: 6.00 Build 0)  -->
<svg version="1.1" id="Слой_1" xmlns="http://www.w3.org/2000/svg" xmlns:xlink="http://www.w3.org/1999/xlink" x="0px" y="0px"
	 viewBox="0 121.9 612 544.9" enable-background="new 0 121.9 612 544.9" xml:space="preserve">
<g>
	<path fill="#4276EC" d="M512.5,415.6H99.3c-7.9,0-14.4-6.4-14.4-14.4c0-8,6.4-14.4,14.4-14.4h413.2c7.9,0,14.4,6.4,14.4,14.4
		C526.9,409.1,520.4,415.6,512.5,415.6L512.5,415.6z"/>
	<g>
		<g>
			<defs>
				<rect id="SVGID_1_" y="121.9" width="612" height="548.3"/>
			</defs>
			<clipPath id="SVGID_2_">
				<use xlink:href="#SVGID_1_"  overflow="visible"/>
			</clipPath>
			<path clip-path="url(#SVGID_2_)" fill="#4276EC" d="M370.5,485.2H241.3c-7.9,0-14.4-6.4-14.4-14.4v-66.6
				c0-7.9,6.4-14.4,14.4-14.4c7.9,0,14.4,6.4,14.4,14.4v52.2h100.5v-55.2c0-7.9,6.5-14.4,14.4-14.4c7.9,0,14.4,6.4,14.4,14.4v69.6
				C384.9,478.7,378.4,485.2,370.5,485.2L370.5,485.2z"/>
		</g>
	</g>
	<path fill="#4276EC" d="M53.8,666.8c-27.8,0-50.5-22.7-50.5-50.7V277.9c0-27.9,22.7-50.5,50.5-50.5h161v-11.7
		c0-50,40.6-90.5,90.5-90.5c50,0,90.5,40.6,90.5,90.5v11.7h161c27.9,0,50.5,22.7,50.5,50.5v338.3c0,13.5-5.2,26.3-14.9,35.8
		c-9.7,9.5-22.2,14.9-35.8,14.9H53.8z M53.8,256.6c-11.7,0-21.2,9.5-21.2,21.2v338.3c0,11.7,9.5,21.2,21.2,21.2h503
		c11.7,0,21.2-9.5,21.2-21.2V277.9c0-11.7-9.5-21.2-21.2-21.2H53.8L53.8,256.6z M305.3,154.3c-33.8,0-61.2,27.4-61.2,61.2v11.7
		h122.4v-11.7C366.5,181.7,339.1,154.3,305.3,154.3z"/>
</g>
</svg>
