<?xml version="1.0" encoding="utf-8"?>
<!-- Generator: Adobe Illustrator 18.1.1, SVG Export Plug-In . SVG Version: 6.00 Build 0)  -->
<svg version="1.1" id="icon" xmlns="http://www.w3.org/2000/svg" xmlns:xlink="http://www.w3.org/1999/xlink" x="0px" y="0px"
	 viewBox="0 0 33.3 33.4" enable-background="new 0 0 33.3 33.4" xml:space="preserve">
<path fill="none" stroke="#231F20" stroke-width="1.7" stroke-miterlimit="10" d="M30.2,24.6c1.4-2.4,2.2-5.1,2.2-8.1
	c0-8.7-7-15.7-15.7-15.7c-5.4,0-10.2,2.8-13,7l0,0c-0.8,1.2-1.3,2.7-1.3,4.3c0,0,0,0,0,0c0,4.3,3.5,7.8,7.8,7.8c2.7,0,5-1.3,6.4-3.4
	c0,0,0-0.1,0.1-0.1c1.4-2.1,3.8-3.5,6.5-3.5c4.3,0,7.8,3.5,7.8,7.8c0,0,0,0,0,0C31.1,22.2,30.8,23.5,30.2,24.6z"/>
<path fill="none" stroke="#231F20" stroke-width="1.7" stroke-miterlimit="10" d="M23.3,13c-2.7,0-5.1,1.4-6.5,3.5l0,0
	c0,0,0,0.1-0.1,0.1c-1.4,2-3.8,3.4-6.4,3.4c-4.3,0-7.8-3.5-7.8-7.8c0,0,0,0,0,0c0-1.6,0.5-3.1,1.3-4.3l0,0C2,10.3,1,13.3,1,16.5
	c0,8.7,7,15.7,15.7,15.7c5.2,0,9.9-2.6,12.7-6.5c0.1-0.2,0.2-0.3,0.4-0.5c0.1-0.2,0.3-0.4,0.4-0.6c0.6-1.1,1-2.4,0.9-3.7
	c0,0,0,0,0,0C31.1,16.5,27.6,13,23.3,13z"/>
</svg>
